0
SECTION
2
HEADER
9
$INSUNITS
70
4
9
$ACADVER
1
AC1014
9
$HANDSEED
5
FFFF
0
ENDSEC
0
SECTION
2
TABLES
0
TABLE
2
VPORT
5
8
100
AcDbSymbolTable
0
ENDTAB
0
TABLE
2
LTYPE
5
5
100
AcDbSymbolTable
0
LTYPE
5
14
100
AcDbSymbolTableRecord
100
AcDbLinetypeTableRecord
2
BYBLOCK
70
0
0
LTYPE
5
15
100
AcDbSymbolTableRecord
100
AcDbLinetypeTableRecord
2
BYLAYER
70
0
0
ENDTAB
0
TABLE
2
LAYER
5
2
100
AcDbSymbolTable
70
2
0
LAYER
5
50
100
AcDbSymbolTableRecord
100
AcDbLayerTableRecord
2
0
70
0
6
CONTINUOUS
0
ENDTAB
0
TABLE
2
STYLE
5
3
100
AcDbSymbolTable
70
1
0
STYLE
5
11
100
AcDbSymbolTableRecord
100
AcDbTextStyleTableRecord
2
STANDARD
70
0
0
ENDTAB
0
TABLE
2
VIEW
5
6
100
AcDbSymbolTable
70
0
0
ENDTAB
0
TABLE
2
UCS
5
7
100
AcDbSymbolTable
70
0
0
ENDTAB
0
TABLE
2
APPID
5
9
100
AcDbSymbolTable
70
2
0
APPID
5
12
100
AcDbSymbolTableRecord
100
AcDbRegAppTableRecord
2
ACAD
70
0
0
ENDTAB
0
TABLE
2
DIMSTYLE
5
A
100
AcDbSymbolTable
70
1
0
ENDTAB
0
TABLE
2
BLOCK_RECORD
5
1
100
AcDbSymbolTable
70
1
0
BLOCK_RECORD
5
1F
100
AcDbSymbolTableRecord
100
AcDbBlockTableRecord
2
*MODEL_SPACE
0
BLOCK_RECORD
5
1B
100
AcDbSymbolTableRecord
100
AcDbBlockTableRecord
2
*PAPER_SPACE
0
ENDTAB
0
ENDSEC
0
SECTION
2
BLOCKS
0
BLOCK
5
20
100
AcDbEntity
100
AcDbBlockBegin
2
*MODEL_SPACE
0
ENDBLK
5
21
100
AcDbEntity
100
AcDbBlockEnd
0
BLOCK
5
1C
100
AcDbEntity
100
AcDbBlockBegin
2
*PAPER_SPACE
0
ENDBLK
5
1D
100
AcDbEntity
100
AcDbBlockEnd
0
ENDSEC
0
SECTION
2
ENTITIES
0
LWPOLYLINE
5
100
100
AcDbEntity
8
0
100
AcDbPolyline
90
11
70
1
43
0.0
10
15.410023223806636
20
-1.9180934732469446
10
15.410023223806636
20
-1.0786568229707605
10
15.905797969747798
20
-1.0786568229707605
10
15.905797969747798
20
-0.40260008030260863
10
15.410023223806636
20
-0.40260008030260863
10
15.410023223806636
20
2.0143012101141089
10
14.897347133804576
20
2.0143012101141089
10
13.010023165692107
20
-0.40823391132677855
10
13.010023165692107
20
-1.0786568229707605
10
14.655093591858165
20
-1.0786568229707605
10
14.655093591858165
20
-1.9180934732469446
0
SPLINE
5
101
100
AcDbEntity
8
0
100
AcDbSpline
70
0
71
3
72
9
73
5
74
0
42
0.000000001
43
0.0000000001
44
0.0000000001
40
0
40
0
40
0
40
0
40
0.039240029063677385
40
0.079948675038315264
40
0.079948675038315264
40
0.079948675038315264
40
0.079948675038315264
10
13.793217941399977
20
19.1238570631606
30
0
10
13.89776151197921
20
19.042945974535158
30
0
10
14.110761352983934
20
18.8780955785017
30
0
10
14.243790833063398
20
18.643752940864804
30
0
10
14.311527415391371
20
18.524429243908585
30
0
0
SPLINE
5
102
100
AcDbEntity
8
0
100
AcDbSpline
70
0
71
3
72
9
73
5
74
0
42
0.000000001
43
0.0000000001
44
0.0000000001
40
0
40
0
40
0
40
0
40
0.043116008407043604
40
0.089496584999690321
40
0.089496584999690321
40
0.089496584999690321
40
0.089496584999690321
10
14.311527415391371
20
18.524429243908585
30
0
10
14.366554347869023
20
18.390414318461495
30
0
10
14.480774627568058
20
18.112237404372593
30
0
10
14.493608929291142
20
17.811579663142119
30
0
10
14.500260158654616
20
17.655767244206132
30
0
0
SPLINE
5
103
100
AcDbEntity
8
0
100
AcDbSpline
70
0
71
3
72
9
73
5
74
0
42
0.000000001
43
0.0000000001
44
0.0000000001
40
0
40
0
40
0
40
0
40
0.046374024453839507
40
0.089487949730868557
40
0.089487949730868557
40
0.089487949730868557
40
0.089487949730868557
10
14.500260158654616
20
17.655767244206132
30
0
10
14.493607300268758
20
17.499976992133078
30
0
10
14.480769280195844
20
17.199348560370598
30
0
10
14.366554398324237
20
16.92120059582453
30
0
10
14.311527415391371
20
16.787193161354722
30
0
0
SPLINE
5
104
100
AcDbEntity
8
0
100
AcDbSpline
70
0
71
3
72
9
73
5
74
0
42
0.000000001
43
0.0000000001
44
0.0000000001
40
0
40
0
40
0
40
0
40
0.040650775242203931
40
0.079753601966470022
40
0.079753601966470022
40
0.079753601966470022
40
0.079753601966470022
10
14.311527415391371
20
16.787193161354722
30
0
10
14.243851905845947
20
16.668017245311059
30
0
10
14.111077915214638
20
16.434203535350917
30
0
10
13.897791363431654
20
16.270702138277315
30
0
10
13.793217941399977
20
16.190538150177659
30
0
0
SPLINE
5
105
100
AcDbEntity
8
0
100
AcDbSpline
70
0
71
3
72
9
73
5
74
0
42
0.000000001
43
0.0000000001
44
0.0000000001
40
0
40
0
40
0
40
0
40
0.038709744264836754
40
0.078585675942870678
40
0.078585675942870678
40
0.078585675942870678
40
0.078585675942870678
10
13.793217941399977
20
16.190538150177659
30
0
10
13.678717629688254
20
16.127407336046602
30
0
10
13.446267517644785
20
15.999243800080814
30
0
10
13.181226154806062
20
15.982548338621074
30
0
10
13.046738906976149
20
15.974076730118455
30
0
0
SPLINE
5
106
100
AcDbEntity
8
0
100
AcDbSpline
70
0
71
3
72
9
73
5
74
0
42
0.000000001
43
0.0000000001
44
0.0000000001
40
0
40
0
40
0
40
0
40
0.039875931678033924
40
0.078585675942870678
40
0.078585675942870678
40
0.078585675942870678
40
0.078585675942870678
10
13.046738906976149
20
15.974076730118455
30
0
10
12.912251659146239
20
15.982548338621072
30
0
10
12.647210296307513
20
15.999243800080812
30
0
10
12.414760184264047
20
16.127407336046602
30
0
10
12.300259872552321
20
16.190538150177659
30
0
0
SPLINE
5
107
100
AcDbEntity
8
0
100
AcDbSpline
70
0
71
3
72
9
73
5
74
0
42
0.000000001
43
0.0000000001
44
0.0000000001
40
0
40
0
40
0
40
0
40
0.039102849159444314
40
0.079753624401648238
40
0.079753624401648238
40
0.079753624401648238
40
0.079753624401648238
10
12.300259872552321
20
16.190538150177659
30
0
10
12.195686335039291
20
16.270702121329322
30
0
10
11.982399610096087
20
16.434203436021384
30
0
10
11.849625600640444
20
16.668017233981828
30
0
10
11.781950100537703
20
16.787193161354722
30
0
0
SPLINE
5
108
100
AcDbEntity
8
0
100
AcDbSpline
70
0
71
3
72
9
73
5
74
0
42
0.000000001
43
0.0000000001
44
0.0000000001
40
0
40
0
40
0
40
0
40
0.04311391549247337
40
0.089487939946312878
40
0.089487939946312878
40
0.089487939946312878
40
0.089487939946312878
10
11.781950100537703
20
16.787193161354722
30
0
10
11.72692324099952
20
16.921200603845069
30
0
10
11.612708601815404
20
17.199348617750893
30
0
10
11.599870537393361
20
17.499977000499047
30
0
10
11.593217655297682
20
17.655767244206132
30
0
0
SPLINE
5
109
100
AcDbEntity
8
0
100
AcDbSpline
70
0
71
3
72
9
73
5
74
0
42
0.000000001
43
0.0000000001
44
0.0000000001
40
0
40
0
40
0
40
0
40
0.04638060927215832
40
0.089496569960554995
40
0.089496569960554995
40
0.089496569960554995
40
0.089496569960554995
10
11.593217655297682
20
17.655767244206132
30
0
10
11.599869033381074
20
17.81157974912961
30
0
10
11.612703610876187
20
18.112237393917905
30
0
10
11.726923437829546
20
18.39041439996204
30
0
10
11.781950100537703
20
18.524429243908585
30
0
0
SPLINE
5
110
100
AcDbEntity
8
0
100
AcDbSpline
70
0
71
3
72
9
73
5
74
0
42
0.000000001
43
0.0000000001
44
0.0000000001
40
0
40
0
40
0
40
0
40
0.040708637481680181
40
0.07994868625209095
40
0.07994868625209095
40
0.07994868625209095
40
0.07994868625209095
10
11.781950100537703
20
18.524429243908585
30
0
10
11.849686828331599
20
18.643752804137375
30
0
10
11.982716640507807
20
18.878095255011761
30
0
10
12.195716335700553
20
19.042945848389806
30
0
10
12.300259872552321
20
19.1238570631606
30
0
0
SPLINE
5
111
100
AcDbEntity
8
0
100
AcDbSpline
70
0
71
3
72
9
73
5
74
0
42
0.000000001
43
0.0000000001
44
0.0000000001
40
0
40
0
40
0
40
0
40
0.038797408395472577
40
0.078682810643666085
40
0.078682810643666085
40
0.078682810643666085
40
0.078682810643666085
10
12.300259872552321
20
19.1238570631606
30
0
10
12.414693600117641
20
19.187796934168745
30
0
10
12.646770114752099
20
19.317469738904364
30
0
10
12.91219259160636
20
19.334472405183632
30
0
10
13.046738906976149
20
19.343091291294755
30
0
0
SPLINE
5
112
100
AcDbEntity
8
0
100
AcDbSpline
70
0
71
3
72
9
73
5
74
0
42
0.000000001
43
0.0000000001
44
0.0000000001
40
0
40
0
40
0
40
0
40
0.039885402248193508
40
0.078682810643666085
40
0.078682810643666085
40
0.078682810643666085
40
0.078682810643666085
10
13.046738906976149
20
19.343091291294755
30
0
10
13.18128522234594
20
19.334472405183632
30
0
10
13.4467076992002
20
19.317469738904364
30
0
10
13.678784213834659
20
19.187796934168745
30
0
10
13.793217941399977
20
19.1238570631606
30
0
0
SPLINE
5
113
100
AcDbEntity
8
0
100
AcDbSpline
70
0
71
3
72
9
73
5
74
0
42
0.000000001
43
0.0000000001
44
0.0000000001
40
-0.069721834608981903
40
-0.069721834608981903
40
-0.069721834608981903
40
-0.069721834608981903
40
-0.034622172201961739
40
0
40
0
40
0
40
0
10
-4.6446271604584215
20
-12.961667628848375
30
0
10
-4.5451914167848919
20
-13.025638636598075
30
0
10
-4.3476726374236332
20
-13.152710400718579
30
0
10
-4.2129403068805651
20
-13.345036635676031
30
0
10
-4.1460354990051744
20
-13.440541179740251
30
0
0
SPLINE
5
114
100
AcDbEntity
8
0
100
AcDbSpline
70
0
71
3
72
9
73
5
74
0
42
0.000000001
43
0.0000000001
44
0.0000000001
40
-0.070997072883354606
40
-0.070997072883354606
40
-0.070997072883354606
40
-0.070997072883354606
40
-0.036136192078635242
40
0
40
0
40
0
40
0
10
-4.1460354990051744
20
-13.440541179740251
30
0
10
-4.092636659854163
20
-13.545271639020209
30
0
10
-3.9838854984498417
20
-13.758563898967925
30
0
10
-3.9700030774052477
20
-13.997698943572217
30
0
10
-3.962937182812547
20
-14.11941424187404
30
0
0
SPLINE
5
115
100
AcDbEntity
8
0
100
AcDbSpline
70
0
71
3
72
9
73
5
74
0
42
0.000000001
43
0.0000000001
44
0.0000000001
40
-0.073784111935572605
40
-0.073784111935572605
40
-0.073784111935572605
40
-0.073784111935572605
40
-0.036424503105491383
40
0
40
0
40
0
40
0
10
-3.962937182812547
20
-14.11941424187404
30
0
10
-3.9706173096017494
20
-14.245255598329653
30
0
10
-3.9857853306929583
20
-14.493788519888756
30
0
10
-4.1006156530734224
20
-14.714622116679077
30
0
10
-4.1573031610535143
20
-14.823639543616594
30
0
0
SPLINE
5
116
100
AcDbEntity
8
0
100
AcDbSpline
70
0
71
3
72
9
73
5
74
0
42
0.000000001
43
0.0000000001
44
0.0000000001
40
-0.073121805261846376
40
-0.073121805261846376
40
-0.073121805261846376
40
-0.073121805261846376
40
-0.036761659989433398
40
0
40
0
40
0
40
0
10
-4.1573031610535143
20
-14.823639543616594
30
0
10
-4.2280243159337063
20
-14.923572866476052
30
0
10
-4.3702475792429896
20
-15.124543047385718
30
0
10
-4.5772017699498182
20
-15.257968880678636
30
0
10
-4.681247062115526
20
-15.325048120581926
30
0
0
SPLINE
5
117
100
AcDbEntity
8
0
100
AcDbSpline
70
0
71
3
72
9
73
5
74
0
42
0.000000001
43
0.0000000001
44
0.0000000001
40
-0.077585615768973742
40
-0.077585615768973742
40
-0.077585615768973742
40
-0.077585615768973742
40
-0.039779440626486598
40
0
40
0
40
0
40
0
10
-4.681247062115526
20
-15.325048120581926
30
0
10
-4.7964290116570343
20
-15.379263723880264
30
0
10
-5.032804747815697
20
-15.490524673985227
30
0
10
-5.2938719744454543
20
-15.504036307983052
30
0
10
-5.4277255004929064
20
-15.510963948333085
30
0
0
SPLINE
5
118
100
AcDbEntity
8
0
100
AcDbSpline
70
0
71
3
72
9
73
5
74
0
42
0.000000001
43
0.0000000001
44
0.0000000001
40
-0.081979164220428363
40
-0.081979164220428363
40
-0.081979164220428363
40
-0.081979164220428363
40
-0.039579594984598142
40
0
40
0
40
0
40
0
10
-5.4277255004929064
20
-15.510963948333085
30
0
10
-5.5708767755665276
20
-15.503136211124334
30
0
10
-5.8476584056427852
20
-15.488001355613385
30
0
10
-6.0906776623611956
20
-15.355309062004068
30
0
10
-6.208007521061754
20
-15.291245134436906
30
0
0
SPLINE
5
119
100
AcDbEntity
8
0
100
AcDbSpline
70
0
71
3
72
9
73
5
74
0
42
0.000000001
43
0.0000000001
44
0.0000000001
40
-0.081981667195511615
40
-0.081981667195511615
40
-0.081981667195511615
40
-0.081981667195511615
40
-0.042355332489925221
40
0
40
0
40
0
40
0
10
-6.208007521061754
20
-15.291245134436906
30
0
10
-6.3125684294137718
20
-15.207872853792885
30
0
10
-6.52889117674491
20
-15.035386586368178
30
0
10
-6.6534921878188005
20
-14.788046431158921
30
0
10
-6.7178665465401171
20
-14.660259636008561
30
0
0
SPLINE
5
120
100
AcDbEntity
8
0
100
AcDbSpline
70
0
71
3
72
9
73
5
74
0
42
0.000000001
43
0.0000000001
44
0.0000000001
40
-0.10076005635802693
40
-0.10076005635802693
40
-0.10076005635802693
40
-0.10076005635802693
40
-0.053570183442641674
40
0
40
0
40
0
40
0
10
-6.7178665465401171
20
-14.660259636008561
30
0
10
-6.7703920927946557
20
-14.510969048104347
30
0
10
-6.8825449059699162
20
-14.192203026463993
30
0
10
-6.8927321080804607
20
-13.854100090427181
30
0
10
-6.8981482452438829
20
-13.674343975150407
30
0
0
SPLINE
5
121
100
AcDbEntity
8
0
100
AcDbSpline
70
0
71
3
72
9
73
5
74
0
42
0.000000001
43
0.0000000001
44
0.0000000001
40
-0.12502594789397808
40
-0.12502594789397808
40
-0.12502594789397808
40
-0.12502594789397808
40
-0.057747609798834282
40
0
40
0
40
0
40
0
10
-6.8981482452438829
20
-13.674343975150407
30
0
10
-6.892979085757279
20
-13.4489428547878
30
0
10
-6.8833730359806964
20
-13.03007120118294
30
0
10
-6.7643778782808397
20
-12.628730914626887
30
0
10
-6.7094158000038622
20
-12.443357856833757
30
0
0
SPLINE
5
122
100
AcDbEntity
8
0
100
AcDbSpline
70
0
71
3
72
9
73
5
74
0
42
0.000000001
43
0.0000000001
44
0.0000000001
40
-0.094169877598980253
40
-0.094169877598980253
40
-0.094169877598980253
40
-0.094169877598980253
40
-0.044373194451133101
40
0
40
0
40
0
40
0
10
-6.7094158000038622
20
-12.443357856833757
30
0
10
-6.6435303970150761
20
-12.288445431407764
30
0
10
-6.5189353448387628
20
-11.995492503245568
30
0
10
-6.2827017585639044
20
-11.782946843487787
30
0
10
-6.1713876194046495
20
-11.682794542872728
30
0
0
SPLINE
5
123
100
AcDbEntity
8
0
100
AcDbSpline
70
0
71
3
72
9
73
5
74
0
42
0.000000001
43
0.0000000001
44
0.0000000001
40
-0.087298929773929862
40
-0.087298929773929862
40
-0.087298929773929862
40
-0.087298929773929862
40
-0.04468723012532367
40
0
40
0
40
0
40
0
10
-6.1713876194046495
20
-11.682794542872728
30
0
10
-6.0479974969967003
20
-11.60804105219859
30
0
10
-5.7952071666480611
20
-11.454892978159465
30
0
10
-5.4999770604950164
20
-11.436084333360409
30
0
10
-5.3488524622009752
20
-11.426456423365892
30
0
0
SPLINE
5
124
100
AcDbEntity
8
0
100
AcDbSpline
70
0
71
3
72
9
73
5
74
0
42
0.000000001
43
0.0000000001
44
0.0000000001
40
-0.071989064174841702
40
-0.071989064174841702
40
-0.071989064174841702
40
-0.071989064174841702
40
-0.035492150573038006
40
0
40
0
40
0
40
0
10
-5.3488524622009752
20
-11.426456423365892
30
0
10
-5.2262578682370027
20
-11.432875770992755
30
0
10
-4.9844437195489677
20
-11.445537741079121
30
0
10
-4.762500612548588
20
-11.54218664783977
30
0
10
-4.6530779069946764
20
-11.589836628997148
30
0
0
SPLINE
5
125
100
AcDbEntity
8
0
100
AcDbSpline
70
0
71
3
72
9
73
5
74
0
42
0.000000001
43
0.0000000001
44
0.0000000001
40
-0.07179411195227095
40
-0.07179411195227095
40
-0.07179411195227095
40
-0.07179411195227095
40
-0.036343253655171229
40
0
40
0
40
0
40
0
10
-4.6530779069946764
20
-11.589836628997148
30
0
10
-4.5506395912019935
20
-11.650781885923614
30
0
10
-4.3431843061821782
20
-11.774206559088622
30
0
10
-4.1917219428658559
20
-11.962251206015384
30
0
10
-4.1150494283722399
20
-12.05744221981746
30
0
0
LINE
5
126
100
AcDbEntity
8
0
100
AcDbLine
10
-4.1150494283722399
20
-12.05744221981746
30
0
11
-4.5488520330475328
21
-12.530681939685167
31
0
0
SPLINE
5
127
100
AcDbEntity
8
0
100
AcDbSpline
70
0
71
3
72
9
73
5
74
0
42
0.000000001
43
0.0000000001
44
0.0000000001
40
-0.048382770710216245
40
-0.048382770710216245
40
-0.048382770710216245
40
-0.048382770710216245
40
-0.024127802428671137
40
0
40
0
40
0
40
0
10
-4.5488520330475328
20
-12.530681939685167
30
0
10
-4.5971149528165247
20
-12.46489025274434
30
0
10
-4.6933877557278088
20
-12.333651816686757
30
0
10
-4.8300145282602482
20
-12.245209330161526
30
0
10
-4.8981483644531725
20
-12.201104314887345
30
0
0
SPLINE
5
128
100
AcDbEntity
8
0
100
AcDbSpline
70
0
71
3
72
9
73
5
74
0
42
0.000000001
43
0.0000000001
44
0.0000000001
40
-0.048170765106830743
40
-0.048170765106830743
40
-0.048170765106830743
40
-0.048170765106830743
40
-0.024134388322272698
40
0
40
0
40
0
40
0
10
-4.8981483644531725
20
-12.201104314887345
30
0
10
-4.9710020161803286
20
-12.165775640651177
30
0
10
-5.1170063901331586
20
-12.094974234789564
30
0
10
-5.2789723638564112
20
-12.084983217008956
30
0
10
-5.3601201242493151
20
-12.07997754391414
30
0
0
SPLINE
5
129
100
AcDbEntity
8
0
100
AcDbSpline
70
0
71
3
72
9
73
5
74
0
42
0.000000001
43
0.0000000001
44
0.0000000001
40
-0.046577801895115012
40
-0.046577801895115012
40
-0.046577801895115012
40
-0.046577801895115012
40
-0.022675599178786678
40
0
40
0
40
0
40
0
10
-5.3601201242493151
20
-12.07997754391414
30
0
10
-5.4409461260343406
20
-12.084993895349921
30
0
10
-5.5984503336505442
20
-12.094769171134541
30
0
10
-5.7337084700473024
20
-12.175759936015638
30
0
10
-5.7995565599487779
20
-12.21518889244777
30
0
0
SPLINE
5
130
100
AcDbEntity
8
0
100
AcDbSpline
70
0
71
3
72
9
73
5
74
0
42
0.000000001
43
0.0000000001
44
0.0000000001
40
-0.049067594582916818
40
-0.049067594582916818
40
-0.049067594582916818
40
-0.049067594582916818
40
-0.025713108724454176
40
0
40
0
40
0
40
0
10
-5.7995565599487779
20
-12.21518889244777
30
0
10
-5.8587295955707202
20
-12.267193762112152
30
0
10
-5.9830516868269426
20
-12.376455592001875
30
0
10
-6.0511794545092545
20
-12.527556162075332
30
0
10
-6.0868807500885485
20
-12.606738062465013
30
0
0
SPLINE
5
131
100
AcDbEntity
8
0
100
AcDbSpline
70
0
71
3
72
9
73
5
74
0
42
0.000000001
43
0.0000000001
44
0.0000000001
40
-0.062941296092807242
40
-0.062941296092807242
40
-0.062941296092807242
40
-0.062941296092807242
40
-0.033621054023975708
40
0
40
0
40
0
40
0
10
-6.0868807500885485
20
-12.606738062465013
30
0
10
-6.1170066803085676
20
-12.700145828428768
30
0
10
-6.1816775343075907
20
-12.900662790092671
30
0
10
-6.1933315853027127
20
-13.11118560463699
30
0
10
-6.1995567745254991
20
-13.22363957937938
30
0
0
SPLINE
5
132
100
AcDbEntity
8
0
100
AcDbSpline
70
0
71
3
72
9
73
5
74
0
42
0.000000001
43
0.0000000001
44
0.0000000001
40
-0.031087092509329246
40
-0.031087092509329246
40
-0.031087092509329246
40
-0.031087092509329246
40
-0.015590139563075461
40
0
40
0
40
0
40
0
10
-6.1995567745254991
20
-13.22363957937938
30
0
10
-6.1713262569466387
20
-13.180046024601776
30
0
10
-6.1146954654223951
20
-13.092596777328332
30
0
10
-6.0361368187137554
20
-13.024158498579123
30
0
10
-5.9967397517250536
20
-12.989836783969224
30
0
0
SPLINE
5
133
100
AcDbEntity
8
0
100
AcDbSpline
70
0
71
3
72
9
73
5
74
0
42
0.000000001
43
0.0000000001
44
0.0000000001
40
-0.032640923349135265
40
-0.032640923349135265
40
-0.032640923349135265
40
-0.032640923349135265
40
-0.016663217310320118
40
0
40
0
40
0
40
0
10
-5.9967397517250536
20
-12.989836783969224
30
0
10
-5.9532321972608004
20
-12.958672804116581
30
0
10
-5.8643504299453912
20
-12.895007777663288
30
0
10
-5.761778772334976
20
-12.857084040383429
30
0
10
-5.7094158596085069
20
-12.837723942363084
30
0
0
SPLINE
5
134
100
AcDbEntity
8
0
100
AcDbSpline
70
0
71
3
72
9
73
5
74
0
42
0.000000001
43
0.0000000001
44
0.0000000001
40
-0.035449290244530821
40
-0.035449290244530821
40
-0.035449290244530821
40
-0.035449290244530821
40
-0.018077725842096628
40
0
40
0
40
0
40
0
10
-5.7094158596085069
20
-12.837723942363084
30
0
10
-5.6534228031523295
20
-12.822115394541658
30
0
10
-5.539160548814702
20
-12.790263804828768
30
0
10
-5.4205876030399791
20
-12.786249818685707
30
0
10
-5.3601201242493151
20
-12.784202845656694
30
0
0
SPLINE
5
135
100
AcDbEntity
8
0
100
AcDbSpline
70
0
71
3
72
9
73
5
74
0
42
0.000000001
43
0.0000000001
44
0.0000000001
40
-0.074344006987746208
40
-0.074344006987746208
40
-0.074344006987746208
40
-0.074344006987746208
40
-0.036197792664156049
40
0
40
0
40
0
40
0
10
-5.3601201242493151
20
-12.784202845656694
30
0
10
-5.2317650914185752
20
-12.790790708063797
30
0
10
-4.9816111082019567
20
-12.803629939885681
30
0
10
-4.7549752379275878
20
-12.909916928966446
30
0
10
-4.6446271604584215
20
-12.961667628848375
30
0
0
SPLINE
5
136
100
AcDbEntity
8
0
100
AcDbSpline
70
0
71
3
72
9
73
5
74
0
42
0.000000001
43
0.0000000001
44
0.0000000001
40
0
40
0
40
0
40
0
40
0.039240073777155098
40
0.07994871975179299
40
0.07994871975179299
40
0.07994871975179299
40
0.07994871975179299
10
-19.011423098520844
20
15.087543200387014
30
0
10
-18.906535416594775
20
15.007078429002508
30
0
10
-18.692834598004456
20
14.843137466662693
30
0
10
-18.5588075582335
20
14.609363731790799
30
0
10
-18.490563071892716
20
14.490329778018758
30
0
0
SPLINE
5
137
100
AcDbEntity
8
0
100
AcDbSpline
70
0
71
3
72
9
73
5
74
0
42
0.000000001
43
0.0000000001
44
0.0000000001
40
0
40
0
40
0
40
0
40
0.043116008407043604
40
0.089496584999690321
40
0.089496584999690321
40
0.089496584999690321
40
0.089496584999690321
10
-18.490563071892716
20
14.490329778018758
30
0
10
-18.43496548937204
20
14.356550585472437
30
0
10
-18.319560702294709
20
14.078862985918212
30
0
10
-18.305445162816603
20
13.778262672864866
30
0
10
-18.298129946711839
20
13.622480015421649
30
0
0
SPLINE
5
138
100
AcDbEntity
8
0
100
AcDbSpline
70
0
71
3
72
9
73
5
74
0
42
0.000000001
43
0.0000000001
44
0.0000000001
40
0
40
0
40
0
40
0
40
0.046374024453839507
40
0.089487949730868557
40
0.089487949730868557
40
0.089487949730868557
40
0.089487949730868557
10
-18.298129946711839
20
13.622480015421649
30
0
10
-18.304118792004648
20
13.466662824785489
30
0
10
-18.315675466087189
20
13.165982409680828
30
0
10
-18.428703889386234
20
12.887350205963097
30
0
10
-18.483159254728175
20
12.75310947246782
30
0
0
SPLINE
5
139
100
AcDbEntity
8
0
100
AcDbSpline
70
0
71
3
72
9
73
5
74
0
42
0.000000001
43
0.0000000001
44
0.0000000001
40
0
40
0
40
0
40
0
40
0.040650775242203931
40
0.079753646836836306
40
0.079753646836836306
40
0.079753646836836306
40
0.079753646836836306
10
-18.483159254728175
20
12.75310947246782
30
0
10
-18.550326222346481
20
12.633646194166188
30
0
10
-18.682102568126233
20
12.3992685703479
30
0
10
-18.894690713613045
20
12.234859828889029
30
0
10
-18.998921771191117
20
12.15425092683526
30
0
0
SPLINE
5
140
100
AcDbEntity
8
0
100
AcDbSpline
70
0
71
3
72
9
73
5
74
0
42
0.000000001
43
0.0000000001
44
0.0000000001
40
0
40
0
40
0
40
0
40
0.038709690155492457
40
0.078585651360141714
40
0.078585651360141714
40
0.078585651360141714
40
0.078585651360141714
10
-18.998921771191117
20
12.15425092683526
30
0
10
-19.113151788626194
20
12.090632705779782
30
0
10
-19.345053420722888
20
11.961479531989561
30
0
10
-19.610021169038433
20
11.94365475631793
30
0
10
-19.744471205011195
20
11.934610101843969
30
0
0
SPLINE
5
141
100
AcDbEntity
8
0
100
AcDbSpline
70
0
71
3
72
9
73
5
74
0
42
0.000000001
43
0.0000000001
44
0.0000000001
40
0
40
0
40
0
40
0
40
0.039875931678033924
40
0.078585675942870678
40
0.078585675942870678
40
0.078585675942870678
40
0.078585675942870678
10
-19.744471205011195
20
11.934610101843969
30
0
10
-19.878993336087746
20
11.942508470669789
30
0
10
-20.144103445245388
20
11.958074217397288
30
0
10
-20.377097658364608
20
12.08524592491602
30
0
10
-20.49186598346737
20
12.147888184039061
30
0
0
SPLINE
5
142
100
AcDbEntity
8
0
100
AcDbSpline
70
0
71
3
72
9
73
5
74
0
42
0.000000001
43
0.0000000001
44
0.0000000001
40
0
40
0
40
0
40
0
40
0.039102849159444314
40
0.079753624401648238
40
0.079753624401648238
40
0.079753624401648238
40
0.079753624401648238
10
-20.49186598346737
20
12.147888184039061
30
0
10
-20.596780217063412
20
12.22760575178765
30
0
10
-20.810761820973834
20
12.390196588340494
30
0
10
-20.944531100935354
20
12.623442401683818
30
0
10
-21.012713894818695
20
12.742328824784217
30
0
0
SPLINE
5
143
100
AcDbEntity
8
0
100
AcDbSpline
70
0
71
3
72
9
73
5
74
0
42
0.000000001
43
0.0000000001
44
0.0000000001
40
0
40
0
40
0
40
0
40
0.043113905707936072
40
0.089487933194008579
40
0.089487933194008579
40
0.089487933194008579
40
0.089487933194008579
10
-21.012713894818695
20
12.742328824784217
30
0
10
-21.068311226876475
20
12.87610054570472
30
0
10
-21.183709965526024
20
13.153759334172541
30
0
10
-21.19782942537903
20
13.454330208632268
30
0
10
-21.205146347291759
20
13.61009067259884
30
0
0
SPLINE
5
144
100
AcDbEntity
8
0
100
AcDbSpline
70
0
71
3
72
9
73
5
74
0
42
0.000000001
43
0.0000000001
44
0.0000000001
40
0
40
0
40
0
40
0
40
0.046380606240355622
40
0.089496576712823253
40
0.089496576712823253
40
0.089496576712823253
40
0.089496576712823253
10
-21.205146347291759
20
13.61009067259884
30
0
10
-21.199159224820868
20
13.765930119722114
30
0
10
-21.18760640115298
20
14.066639794840954
30
0
10
-21.074572871242225
20
14.345300998504165
30
0
10
-21.020117711983236
20
14.479549130335151
30
0
0
SPLINE
5
145
100
AcDbEntity
8
0
100
AcDbSpline
70
0
71
3
72
9
73
5
74
0
42
0.000000001
43
0.0000000001
44
0.0000000001
40
0
40
0
40
0
40
0
40
0.040708621087014826
40
0.079948692214148284
40
0.079948692214148284
40
0.079948692214148284
40
0.079948692214148284
10
-21.020117711983236
20
14.479549130335151
30
0
10
-20.952890259376598
20
14.599160308632598
30
0
10
-20.820860562146109
20
14.834067731771139
30
0
10
-20.608565201152182
20
14.99982445836949
30
0
10
-20.5043673107971
20
15.081180457590815
30
0
0
SPLINE
5
146
100
AcDbEntity
8
0
100
AcDbSpline
70
0
71
3
72
9
73
5
74
0
42
0.000000001
43
0.0000000001
44
0.0000000001
40
0
40
0
40
0
40
0
40
0.038797408395472577
40
0.078682810643666085
40
0.078682810643666085
40
0.078682810643666085
40
0.078682810643666085
10
-20.5043673107971
20
15.081180457590815
30
0
10
-20.390207123794571
20
15.145607445822298
30
0
10
-20.158685361170509
20
15.276268145209402
30
0
10
-19.89333775738902
20
15.294401844431519
30
0
10
-19.758829396212793
20
15.303594066745458
30
0
0
SPLINE
5
147
100
AcDbEntity
8
0
100
AcDbSpline
70
0
71
3
72
9
73
5
74
0
42
0.000000001
43
0.0000000001
44
0.0000000001
40
0
40
0
40
0
40
0
40
0.039885431767797914
40
0.078682786176188346
40
0.078682786176188346
40
0.078682786176188346
40
0.078682786176188346
10
-19.758829396212793
20
15.303594066745458
30
0
10
-19.624247456402671
20
15.295548714457038
30
0
10
-19.358754981483401
20
15.279677487651535
30
0
10
-19.126128086900817
20
15.150994793140587
30
0
10
-19.011423098520844
20
15.087543200387014
30
0
0
SPLINE
5
148
100
AcDbEntity
8
0
100
AcDbSpline
70
0
71
3
72
9
73
5
74
0
42
0.000000001
43
0.0000000001
44
0.0000000001
40
0
40
0
40
0
40
0
40
0.021292289786327547
40
0.042069328476159622
40
0.042069328476159622
40
0.042069328476159622
40
0.042069328476159622
10
-21.854104014409693
20
13.859791900115566
30
0
10
-21.886478569679202
20
13.795979053080146
30
0
10
-21.950444249912291
20
13.669897563025661
30
0
10
-22.052819695877442
20
13.572439620599193
30
0
10
-22.103380488710446
20
13.524307465564348
30
0
0
SPLINE
5
149
100
AcDbEntity
8
0
100
AcDbSpline
70
0
71
3
72
9
73
5
74
0
42
0.000000001
43
0.0000000001
44
0.0000000001
40
0
40
0
40
0
40
0
40
0.020621470488662145
40
0.041676162410758298
40
0.041676162410758298
40
0.041676162410758298
40
0.041676162410758298
10
-22.103380488710446
20
13.524307465564348
30
0
10
-22.159320514266255
20
13.483152808992763
30
0
10
-22.272375768575479
20
13.39997890768541
30
0
10
-22.408508037385001
20
13.36566403240543
30
0
10
-22.477281715541618
20
13.348328244137683
30
0
0
SPLINE
5
150
100
AcDbEntity
8
0
100
AcDbSpline
70
0
71
3
72
9
73
5
74
0
42
0.000000001
43
0.0000000001
44
0.0000000001
40
0
40
0
40
0
40
0
40
0.023055300223288527
40
0.045300968391785337
40
0.045300968391785337
40
0.045300968391785337
40
0.045300968391785337
10
-22.477281715541618
20
13.348328244137683
30
0
10
-22.401459093763975
20
13.331517413058904
30
0
10
-22.252476510181655
20
13.298486096183229
30
0
10
-22.126909323177387
20
13.211887028982483
30
0
10
-22.065247816279999
20
13.169361357213432
30
0
0
SPLINE
5
151
100
AcDbEntity
8
0
100
AcDbSpline
70
0
71
3
72
9
73
5
74
0
42
0.000000001
43
0.0000000001
44
0.0000000001
40
0
40
0
40
0
40
0
40
0.022315447920838657
40
0.045397621779602465
40
0.045397621779602465
40
0.045397621779602465
40
0.045397621779602465
10
-22.065247816279999
20
13.169361357213432
30
0
10
-22.009718929643451
20
13.118918261403563
30
0
10
-21.896753265574731
20
13.016298919273748
30
0
10
-21.826302803597308
20
12.880855408642587
30
0
10
-21.790482649411963
20
12.81198989239137
30
0
0
SPLINE
5
152
100
AcDbEntity
8
0
100
AcDbSpline
70
0
71
3
72
9
73
5
74
0
42
0.000000001
43
0.0000000001
44
0.0000000001
40
0
40
0
40
0
40
0
40
0.024106582018018081
40
0.0494687234172623
40
0.0494687234172623
40
0.0494687234172623
40
0.0494687234172623
10
-21.790482649411963
20
12.81198989239137
30
0
10
-21.76140983505336
20
12.73648254846664
30
0
10
-21.701749987324135
20
12.581535160662227
30
0
10
-21.69387559113229
20
12.415614422701397
30
0
10
-21.689838463511943
20
12.330548447140742
30
0
0
SPLINE
5
153
100
AcDbEntity
8
0
100
AcDbSpline
70
0
71
3
72
9
73
5
74
0
42
0.000000001
43
0.0000000001
44
0.0000000001
40
0
40
0
40
0
40
0
40
0.033579564265393859
40
0.065289643517390611
40
0.065289643517390611
40
0.065289643517390611
40
0.065289643517390611
10
-21.689838463511943
20
12.330548447140742
30
0
10
-21.695968385029666
20
12.217114788613817
30
0
10
-21.707886955131364
20
11.996562697182153
30
0
10
-21.815306222518906
20
11.803814286520593
30
0
10
-21.867477949894678
20
11.710199632672065
30
0
0
SPLINE
5
154
100
AcDbEntity
8
0
100
AcDbSpline
70
0
71
3
72
9
73
5
74
0
42
0.000000001
43
0.0000000001
44
0.0000000001
40
0
40
0
40
0
40
0
40
0.031989091499248085
40
0.066088997209267475
40
0.066088997209267475
40
0.066088997209267475
40
0.066088997209267475
10
-21.867477949894678
20
11.710199632672065
30
0
10
-21.935092895082807
20
11.62613346029106
30
0
10
-22.074784387226259
20
11.452453972331465
30
0
10
-22.273205195694313
20
11.350478881545282
30
0
10
-22.375584277619886
20
11.297862846692029
30
0
0
SPLINE
5
155
100
AcDbEntity
8
0
100
AcDbSpline
70
0
71
3
72
9
73
5
74
0
42
0.000000001
43
0.0000000001
44
0.0000000001
40
0
40
0
40
0
40
0
40
0.037486932464446752
40
0.0792670667893208
40
0.0792670667893208
40
0.0792670667893208
40
0.0792670667893208
10
-22.375584277619886
20
11.297862846692029
30
0
10
-22.493704381146333
20
11.254721170949564
30
0
10
-22.743472327463973
20
11.163497006483068
30
0
10
-23.009423865186687
20
11.153519251838194
30
0
10
-23.149601765291081
20
11.148260170782107
30
0
0
SPLINE
5
156
100
AcDbEntity
8
0
100
AcDbSpline
70
0
71
3
72
9
73
5
74
0
42
0.000000001
43
0.0000000001
44
0.0000000001
40
0
40
0
40
0
40
0
40
0.040499379494738391
40
0.077403622043348413
40
0.077403622043348413
40
0.077403622043348413
40
0.077403622043348413
10
-23.149601765291081
20
11.148260170782107
30
0
10
-23.285416723060553
20
11.152285928018987
30
0
10
-23.544990321228582
20
11.159980075324189
30
0
10
-23.790754824667228
20
11.243322204818275
30
0
10
-23.907929610617931
20
11.283057789280264
30
0
0
SPLINE
5
157
100
AcDbEntity
8
0
100
AcDbSpline
70
0
71
3
72
9
73
5
74
0
42
0.000000001
43
0.0000000001
44
0.0000000001
40
0
40
0
40
0
40
0
40
0.034652034539794756
40
0.068627659553226902
40
0.068627659553226902
40
0.068627659553226902
40
0.068627659553226902
10
-23.907929610617931
20
11.283057789280264
30
0
10
-24.013058029915392
20
11.333458703101778
30
0
10
-24.221262756267894
20
11.433276702271268
30
0
10
-24.380234650198499
20
11.600661933380906
30
0
10
-24.458937165933754
20
11.683529655841367
30
0
0
LINE
5
158
100
AcDbEntity
8
0
100
AcDbLine
10
-24.458937165933754
20
11.683529655841365
30
0
11
-24.03305300449048
21
12.220561145007668
31
0
0
SPLINE
5
159
100
AcDbEntity
8
0
100
AcDbSpline
70
0
71
3
72
9
73
5
74
0
42
0.000000001
43
0.0000000001
44
0.0000000001
40
0
40
0
40
0
40
0
40
0.022806676521965694
40
0.045524489296944796
40
0.045524489296944796
40
0.045524489296944796
40
0.045524489296944796
10
-24.03305300449048
20
12.220561145007668
30
0
10
-23.981587083309673
20
12.163889214719745
30
0
10
-23.878855772340426
20
12.050766170187366
30
0
10
-23.74601946082818
20
11.975244318043345
30
0
10
-23.679730953230216
20
11.937557101252478
30
0
0
SPLINE
5
160
100
AcDbEntity
8
0
100
AcDbSpline
70
0
71
3
72
9
73
5
74
0
42
0.000000001
43
0.0000000001
44
0.0000000001
40
0
40
0
40
0
40
0
40
0.024185398064200208
40
0.051843621188612854
40
0.051843621188612854
40
0.051843621188612854
40
0.051843621188612854
10
-23.679730953230216
20
11.937557101252478
30
0
10
-23.604236812241695
20
11.907515987881187
30
0
10
-23.442408189988747
20
11.843120103324267
30
0
10
-23.26807277100027
20
11.838139052998544
30
0
10
-23.175065997817335
20
11.835481696159956
30
0
0
SPLINE
5
161
100
AcDbEntity
8
0
100
AcDbSpline
70
0
71
3
72
9
73
5
74
0
42
0.000000001
43
0.0000000001
44
0.0000000001
40
0
40
0
40
0
40
0
40
0.030491219581400886
40
0.055058988781059151
40
0.055058988781059151
40
0.055058988781059151
40
0.055058988781059151
10
-23.175065997817335
20
11.835481696159956
30
0
10
-23.071521456984691
20
11.838848071487501
30
0
10
-22.884547705514212
20
11.84492684511271
30
0
10
-22.723566467853558
20
11.938636830945661
30
0
10
-22.651735328563127
20
11.980450989807206
30
0
0
SPLINE
5
162
100
AcDbEntity
8
0
100
AcDbSpline
70
0
71
3
72
9
73
5
74
0
42
0.000000001
43
0.0000000001
44
0.0000000001
40
0
40
0
40
0
40
0
40
0.022384978824935904
40
0.047760935479750397
40
0.047760935479750397
40
0.047760935479750397
40
0.047760935479750397
10
-22.651735328563127
20
11.980450989807206
30
0
10
-22.59944861722872
20
12.036868838641801
30
0
10
-22.487888884873332
20
12.15724282957423
30
0
10
-22.478348688013444
20
12.321871507982319
30
0
10
-22.473279867238407
20
12.4093406952053
30
0
0
SPLINE
5
163
100
AcDbEntity
8
0
100
AcDbSpline
70
0
71
3
72
9
73
5
74
0
42
0.000000001
43
0.0000000001
44
0.0000000001
40
0
40
0
40
0
40
0
40
0.027297787747576231
40
0.052530877069748315
40
0.052530877069748315
40
0.052530877069748315
40
0.052530877069748315
10
-22.473279867238407
20
12.4093406952053
30
0
10
-22.480916401586729
20
12.503277915374383
30
0
10
-22.495611872545773
20
12.684047309971723
30
0
10
-22.622678578020654
20
12.812680644704317
30
0
10
-22.683714785827821
20
12.874469379371867
30
0
0
SPLINE
5
164
100
AcDbEntity
8
0
100
AcDbSpline
70
0
71
3
72
9
73
5
74
0
42
0.000000001
43
0.0000000001
44
0.0000000001
40
0
40
0
40
0
40
0
40
0.028912887097737563
40
0.066038939210828457
40
0.066038939210828457
40
0.066038939210828457
40
0.066038939210828457
10
-22.683714785827821
20
12.874469379371867
30
0
10
-22.769385927313582
20
12.921493086059922
30
0
10
-22.965064459366623
20
13.028898330542869
30
0
10
-23.189318232691946
20
13.032736717185198
30
0
10
-23.315390174102966
20
13.034894597735915
30
0
0
LINE
5
165
100
AcDbEntity
8
0
100
AcDbLine
10
-23.315390174102966
20
13.034894597735915
30
0
11
-23.473135265119964
21
13.0342223077513
31
0
0
LINE
5
166
100
AcDbEntity
8
0
100
AcDbLine
10
-23.473135265119964
20
13.0342223077513
30
0
11
-23.475536300688585
21
13.597597611524828
31
0
0
LINE
5
167
100
AcDbEntity
8
0
100
AcDbLine
10
-23.475536300688585
20
13.597597611524828
30
0
11
-23.300890019103097
21
13.598341932284372
31
0
0
SPLINE
5
168
100
AcDbEntity
8
0
100
AcDbSpline
70
0
71
3
72
9
73
5
74
0
42
0.000000001
43
0.0000000001
44
0.0000000001
40
0
40
0
40
0
40
0
40
0.030900853104400192
40
0.057067527256837246
40
0.057067527256837246
40
0.057067527256837246
40
0.057067527256837246
10
-23.300890019103097
20
13.598341932284374
30
0
10
-23.1958424892183
20
13.60299980408991
30
0
10
-23.001841283015025
20
13.611601936378076
30
0
10
-22.838467928091255
20
13.715254448117005
30
0
10
-22.763557772544459
20
13.762781327765172
30
0
0
SPLINE
5
169
100
AcDbEntity
8
0
100
AcDbSpline
70
0
71
3
72
9
73
5
74
0
42
0.000000001
43
0.0000000001
44
0.0000000001
40
0
40
0
40
0
40
0
40
0.023350779868351313
40
0.046169508324526667
40
0.046169508324526667
40
0.046169508324526667
40
0.046169508324526667
10
-22.763557772544459
20
13.762781327765172
30
0
10
-22.707113049248285
20
13.819972539569223
30
0
10
-22.5955097050863
20
13.93305185188186
30
0
10
-22.579053944391308
20
14.090940916805557
30
0
10
-22.570920881067362
20
14.168975702737628
30
0
0
SPLINE
5
170
100
AcDbEntity
8
0
100
AcDbSpline
70
0
71
3
72
9
73
5
74
0
42
0.000000001
43
0.0000000001
44
0.0000000001
40
0
40
0
40
0
40
0
40
0.014448601385722029
40
0.02739980435365405
40
0.02739980435365405
40
0.02739980435365405
40
0.02739980435365405
10
-22.570920881067362
20
14.168975702737628
30
0
10
-22.573455885530564
20
14.217835390580159
30
0
10
-22.578263176179195
20
14.310491132954573
30
0
10
-22.623763514976773
20
14.391145498033939
30
0
10
-22.645270388357002
20
14.429268801357939
30
0
0
SPLINE
5
171
100
AcDbEntity
8
0
100
AcDbSpline
70
0
71
3
72
9
73
5
74
0
42
0.000000001
43
0.0000000001
44
0.0000000001
40
0
40
0
40
0
40
0
40
0.012580117664133623
40
0.025656750451487322
40
0.025656750451487322
40
0.025656750451487322
40
0.025656750451487322
10
-22.645270388357002
20
14.429268801357939
30
0
10
-22.672447843545541
20
14.461896676244288
30
0
10
-22.727875400289847
20
14.528440190865624
30
0
10
-22.806077342992779
20
14.565770613547642
30
0
10
-22.845935005011114
20
14.584797038196877
30
0
0
SPLINE
5
172
100
AcDbEntity
8
0
100
AcDbSpline
70
0
71
3
72
9
73
5
74
0
42
0.000000001
43
0.0000000001
44
0.0000000001
40
0
40
0
40
0
40
0
40
0.014277763147071796
40
0.030176307725612049
40
0.030176307725612049
40
0.030176307725612049
40
0.030176307725612049
10
-22.845935005011114
20
14.584797038196877
30
0
10
-22.891381746481152
20
14.59979115411436
30
0
10
-22.987434247254519
20
14.631481486230026
30
0
10
-23.088619222799235
20
14.634210739356956
30
0
10
-23.141929053113923
20
14.635648660553251
30
0
0
SPLINE
5
173
100
AcDbEntity
8
0
100
AcDbSpline
70
0
71
3
72
9
73
5
74
0
42
0.000000001
43
0.0000000001
44
0.0000000001
40
0
40
0
40
0
40
0
40
0.024405255554423765
40
0.048101149475029456
40
0.048101149475029456
40
0.048101149475029456
40
0.048101149475029456
10
-23.141929053113923
20
14.635648660553251
30
0
10
-23.224009200694962
20
14.630666471034122
30
0
10
-23.385783759413414
20
14.620846904005287
30
0
10
-23.53157295107814
20
14.550182284459263
30
0
10
-23.603392549116059
20
14.515371030529213
30
0
0
SPLINE
5
174
100
AcDbEntity
8
0
100
AcDbSpline
70
0
71
3
72
9
73
5
74
0
42
0.000000001
43
0.0000000001
44
0.0000000001
40
0
40
0
40
0
40
0
40
0.023633881021807603
40
0.047808825085198715
40
0.047808825085198715
40
0.047808825085198715
40
0.047808825085198715
10
-23.603392549116059
20
14.515371030529213
30
0
10
-23.669640489996119
20
14.471265238284886
30
0
10
-23.80365302119516
20
14.382043916373878
30
0
10
-23.89421011564583
20
14.248876259861278
30
0
10
-23.940001090198898
20
14.181538887702311
30
0
0
LINE
5
175
100
AcDbEntity
8
0
100
AcDbLine
10
-23.940001090198891
20
14.181538887702311
30
0
11
-24.415493206884676
21
14.709094940940698
31
0
0
SPLINE
5
176
100
AcDbEntity
8
0
100
AcDbSpline
70
0
71
3
72
9
73
5
74
0
42
0.000000001
43
0.0000000001
44
0.0000000001
40
0
40
0
40
0
40
0
40
0.02147161622451851
40
0.044499880018588359
40
0.044499880018588359
40
0.044499880018588359
40
0.044499880018588359
10
-24.415493206884676
20
14.709094940940698
30
0
10
-24.371534565236246
20
14.766187925737185
30
0
10
-24.280430371742817
20
14.884513018118701
30
0
10
-24.156809606868205
20
14.968446494409571
30
0
10
-24.092837039239523
20
15.01188126844429
30
0
0
SPLINE
5
177
100
AcDbEntity
8
0
100
AcDbSpline
70
0
71
3
72
9
73
5
74
0
42
0.000000001
43
0.0000000001
44
0.0000000001
40
0
40
0
40
0
40
0
40
0.024849987733731854
40
0.051507762414322915
40
0.051507762414322915
40
0.051507762414322915
40
0.051507762414322915
10
-24.092837039239523
20
15.01188126844429
30
0
10
-24.020417829399022
20
15.052607955212586
30
0
10
-23.87031105692629
20
15.137024113822459
30
0
10
-23.705666075404292
20
15.187679501460012
30
0
10
-23.620454281803195
20
15.21389613069616
30
0
0
SPLINE
5
178
100
AcDbEntity
8
0
100
AcDbSpline
70
0
71
3
72
9
73
5
74
0
42
0.000000001
43
0.0000000001
44
0.0000000001
40
0
40
0
40
0
40
0
40
0.027939649708658802
40
0.056660055533376524
40
0.056660055533376524
40
0.056660055533376524
40
0.056660055533376524
10
-23.620454281803195
20
15.21389613069616
30
0
10
-23.529633005536965
20
15.235643736010713
30
0
10
-23.345452508983996
20
15.279746669930415
30
0
10
-23.156158971517261
20
15.286235088041241
30
0
10
-23.0602080027993
20
15.289524001183828
30
0
0
SPLINE
5
179
100
AcDbEntity
8
0
100
AcDbSpline
70
0
71
3
72
9
73
5
74
0
42
0.000000001
43
0.0000000001
44
0.0000000001
40
0
40
0
40
0
40
0
40
0.036122971205571057
40
0.068849391709434909
40
0.068849391709434909
40
0.068849391709434909
40
0.068849391709434909
10
-23.0602080027993
20
15.289524001183828
30
0
10
-22.93901824520244
20
15.285915393096678
30
0
10
-22.708033893320803
20
15.27903748512216
30
0
10
-22.490052515059041
20
15.202857201903257
30
0
10
-22.386438669389747
20
15.166646163274958
30
0
0
SPLINE
5
180
100
AcDbEntity
8
0
100
AcDbSpline
70
0
71
3
72
9
73
5
74
0
42
0.000000001
43
0.0000000001
44
0.0000000001
40
0
40
0
40
0
40
0
40
0.029957400827987139
40
0.058107942260809439
40
0.058107942260809439
40
0.058107942260809439
40
0.058107942260809439
10
-22.386438669389747
20
15.166646163274958
30
0
10
-22.295727526254908
20
15.122079619062712
30
0
10
-22.11977641828139
20
15.03563453016068
30
0
10
-21.992884365481622
20
14.886422694250975
30
0
10
-21.931411185553774
20
14.814136638238342
30
0
0
SPLINE
5
181
100
AcDbEntity
8
0
100
AcDbSpline
70
0
71
3
72
9
73
5
74
0
42
0.000000001
43
0.0000000001
44
0.0000000001
40
0
40
0
40
0
40
0
40
0.027596713547070134
40
0.056330406955531202
40
0.056330406955531202
40
0.056330406955531202
40
0.056330406955531202
10
-21.931411185553774
20
14.814136638238342
30
0
10
-21.883422192802627
20
14.734030996568537
30
0
10
-21.78546706903591
20
14.570519374541606
30
0
10
-21.77242112135778
20
14.380218573765436
30
0
10
-21.76576648701257
20
14.283147645994511
30
0
0
SPLINE
5
182
100
AcDbEntity
8
0
100
AcDbSpline
70
0
71
3
72
9
73
5
74
0
42
0.000000001
43
0.0000000001
44
0.0000000001
40
0
40
0
40
0
40
0
40
0.021835340520168989
40
0.043496188807734482
40
0.043496188807734482
40
0.043496188807734482
40
0.043496188807734482
10
-21.76576648701257
20
14.283147645994511
30
0
10
-21.76914971956414
20
14.209921701311114
30
0
10
-21.775889148322207
20
14.064054980678492
30
0
10
-21.828102212859459
20
13.927697253030139
30
0
10
-21.854104014409693
20
13.859791900115566
30
0
0
LWPOLYLINE
5
183
100
AcDbEntity
8
0
100
AcDbPolyline
90
11
70
1
43
0.0
10
-7.8615285820053575
20
-16.17011860188228
10
-7.8615285820053575
20
-15.330681951606095
10
-7.3657538360641954
20
-15.330681951606095
10
-7.3657538360641954
20
-14.654625208937944
10
-7.8615285820053575
20
-14.654625208937944
10
-7.8615285820053575
20
-12.237723918521226
10
-8.3742046720074175
20
-12.237723918521226
10
-10.261528640119886
20
-14.660259039962114
10
-10.261528640119886
20
-15.330681951606095
10
-8.6164582139538286
20
-15.330681951606095
10
-8.6164582139538286
20
-16.17011860188228
0
SPLINE
5
184
100
AcDbEntity
8
0
100
AcDbSpline
70
0
71
3
72
9
73
5
74
0
42
0.000000001
43
0.0000000001
44
0.0000000001
40
-0.069721823873903396
40
-0.069721823873903396
40
-0.069721823873903396
40
-0.069721823873903396
40
-0.034622209421876091
40
0
40
0
40
0
40
0
10
10.410119100686476
20
18.523373049603165
30
0
10
10.509554583431882
20
18.459401979015183
30
0
10
10.707073083934702
20
18.332329936025758
30
0
10
10.841805720215898
20
18.140004007823407
30
0
10
10.908710762139723
20
18.044499498711289
30
0
0
SPLINE
5
185
100
AcDbEntity
8
0
100
AcDbSpline
70
0
71
3
72
9
73
5
74
0
42
0.000000001
43
0.0000000001
44
0.0000000001
40
-0.070997076658498179
40
-0.070997076658498179
40
-0.070997076658498179
40
-0.070997076658498179
40
-0.036136195853778814
40
0
40
0
40
0
40
0
10
10.908710762139723
20
18.044499498711289
30
0
10
10.962109577734449
20
17.939769036364492
30
0
10
11.070860696947092
20
17.726476758829474
30
0
10
11.08474335882217
20
17.487341732050268
30
0
10
11.091809376355574
20
17.3656264365775
30
0
0
SPLINE
5
186
100
AcDbEntity
8
0
100
AcDbSpline
70
0
71
3
72
9
73
5
74
0
42
0.000000001
43
0.0000000001
44
0.0000000001
40
-0.073784123862768627
40
-0.073784123862768627
40
-0.073784123862768627
40
-0.073784123862768627
40
-0.036424515032687413
40
0
40
0
40
0
40
0
10
11.091809376355574
20
17.3656264365775
30
0
10
11.084129269853619
20
17.239785071043663
30
0
10
11.068961286377217
20
16.991252091380005
30
0
10
10.954130731999022
20
16.77041855166938
30
0
10
10.897443100091383
20
16.661401134834946
30
0
0
SPLINE
5
187
100
AcDbEntity
8
0
100
AcDbSpline
70
0
71
3
72
9
73
5
74
0
42
0.000000001
43
0.0000000001
44
0.0000000001
40
-0.073121793272753338
40
-0.073121793272753338
40
-0.073121793272753338
40
-0.073121793272753338
40
-0.036761648000340368
40
0
40
0
40
0
40
0
10
10.897443100091383
20
16.661401134834946
30
0
10
10.826721941778361
20
16.561467816898809
30
0
10
10.68449869488451
20
16.360497678841334
30
0
10
10.477544583469891
20
16.227071806517362
30
0
10
10.373499348040987
20
16.159992557869614
30
0
0
SPLINE
5
188
100
AcDbEntity
8
0
100
AcDbSpline
70
0
71
3
72
9
73
5
74
0
42
0.000000001
43
0.0000000001
44
0.0000000001
40
-0.077585662063171607
40
-0.077585662063171607
40
-0.077585662063171607
40
-0.077585662063171607
40
-0.039779514621966917
40
0
40
0
40
0
40
0
10
10.373499348040987
20
16.159992557869614
30
0
10
10.258317497888033
20
16.105776955554596
30
0
10
10.021941651455236
20
15.994515859556756
30
0
10
9.7608742483014357
20
15.981004327139267
30
0
10
9.627020462628769
20
15.974076730118455
30
0
0
SPLINE
5
189
100
AcDbEntity
8
0
100
AcDbSpline
70
0
71
3
72
9
73
5
74
0
42
0.000000001
43
0.0000000001
44
0.0000000001
40
-0.081979130349923629
40
-0.081979130349923629
40
-0.081979130349923629
40
-0.081979130349923629
40
-0.039579561114093408
40
0
40
0
40
0
40
0
10
9.627020462628769
20
15.974076730118455
30
0
10
9.4838691803482291
20
15.981904449974467
30
0
10
9.2070876506925465
20
15.997039265680952
30
0
10
8.9640685473228423
20
16.129731616959326
30
0
10
8.8467388145889512
20
16.193795544014634
30
0
0
SPLINE
5
190
100
AcDbEntity
8
0
100
AcDbSpline
70
0
71
3
72
9
73
5
74
0
42
0.000000001
43
0.0000000001
44
0.0000000001
40
-0.081981676518313923
40
-0.081981676518313923
40
-0.081981676518313923
40
-0.081981676518313923
40
-0.042355336317749626
40
0
40
0
40
0
40
0
10
8.8467388145889512
20
16.193795544014634
30
0
10
8.7421778816287912
20
16.277167823190496
30
0
10
8.5258550887842759
20
16.449654083273948
30
0
10
8.4012540247033165
20
16.69699424625858
30
0
10
8.3368796400989762
20
16.824781042442979
30
0
0
SPLINE
5
191
100
AcDbEntity
8
0
100
AcDbSpline
70
0
71
3
72
9
73
5
74
0
42
0.000000001
43
0.0000000001
44
0.0000000001
40
-0.10076005538377961
40
-0.10076005538377961
40
-0.10076005538377961
40
-0.10076005538377961
40
-0.053570184069483939
40
0
40
0
40
0
40
0
10
8.3368796400989762
20
16.824781042442979
30
0
10
8.2843541219950918
20
16.974071632056301
30
0
10
8.1722013662064636
20
17.292837665079119
30
0
10
8.1620140961644374
20
17.630940590060604
30
0
10
8.1565979227687588
20
17.810696703301133
30
0
0
SPLINE
5
192
100
AcDbEntity
8
0
100
AcDbSpline
70
0
71
3
72
9
73
5
74
0
42
0.000000001
43
0.0000000001
44
0.0000000001
40
-0.12502594522053082
40
-0.12502594522053082
40
-0.12502594522053082
40
-0.12502594522053082
40
-0.057747606602869213
40
0
40
0
40
0
40
0
10
8.1565979227687588
20
17.810696703301133
30
0
10
8.1617671261552029
20
18.036097820021219
30
0
10
8.171373257232549
20
18.454969454647085
30
0
10
8.2903682923417659
20
18.856309760983684
30
0
10
8.3453303121294233
20
19.041682821617783
30
0
0
SPLINE
5
193
100
AcDbEntity
8
0
100
AcDbSpline
70
0
71
3
72
9
73
5
74
0
42
0.000000001
43
0.0000000001
44
0.0000000001
40
-0.094169879256848499
40
-0.094169879256848499
40
-0.094169879256848499
40
-0.094169879256848499
40
-0.044373189260197364
40
0
40
0
40
0
40
0
10
8.3453303121294233
20
19.041682821617783
30
0
10
8.4112157762601729
20
19.196595239929756
30
0
10
8.5358109291185507
20
19.489548119504796
30
0
10
8.7720444662250969
20
19.702093826285669
30
0
10
8.8833585672344419
20
19.802246135578812
30
0
0
SPLINE
5
194
100
AcDbEntity
8
0
100
AcDbSpline
70
0
71
3
72
9
73
5
74
0
42
0.000000001
43
0.0000000001
44
0.0000000001
40
-0.087298924573590203
40
-0.087298924573590203
40
-0.087298924573590203
40
-0.087298924573590203
40
-0.044687244872463908
40
0
40
0
40
0
40
0
10
8.8833585672344419
20
19.802246135578812
30
0
10
9.0067486141522313
20
19.876999625861835
30
0
10
9.2595388931217588
20
20.030147761668772
30
0
10
9.5547689949681036
20
20.048956363390879
30
0
10
9.7058936499323103
20
20.058584255085648
30
0
0
SPLINE
5
195
100
AcDbEntity
8
0
100
AcDbSpline
70
0
71
3
72
9
73
5
74
0
42
0.000000001
43
0.0000000001
44
0.0000000001
40
-0.071989076514508449
40
-0.071989076514508449
40
-0.071989076514508449
40
-0.071989076514508449
40
-0.035492192527807338
40
0
40
0
40
0
40
0
10
9.7058936499323103
20
20.058584255085648
30
0
10
9.8284881365553218
20
20.052164879161701
30
0
10
10.07030231118395
20
20.039502840815278
30
0
10
10.29224549843844
20
19.942854030982748
30
0
10
10.401668354150221
20
19.895204049454392
30
0
0
SPLINE
5
196
100
AcDbEntity
8
0
100
AcDbSpline
70
0
71
3
72
9
73
5
74
0
42
0.000000001
43
0.0000000001
44
0.0000000001
40
-0.071794102655065778
40
-0.071794102655065778
40
-0.071794102655065778
40
-0.071794102655065778
40
-0.036343293732359574
40
0
40
0
40
0
40
0
10
10.401668354150221
20
19.895204049454392
30
0
10
10.504106417564154
20
19.834258732001832
30
0
10
10.711561453542631
20
19.710833780343474
30
0
10
10.863024087033569
20
19.522789436373035
30
0
10
10.939696832772658
20
19.42759845863408
30
0
0
LINE
5
197
100
AcDbEntity
8
0
100
AcDbLine
10
10.939696832772658
20
19.42759845863408
30
0
11
10.505893930074141
21
18.954358738766373
31
0
0
SPLINE
5
198
100
AcDbEntity
8
0
100
AcDbSpline
70
0
71
3
72
9
73
5
74
0
42
0.000000001
43
0.0000000001
44
0.0000000001
40
-0.048382756645183225
40
-0.048382756645183225
40
-0.048382756645183225
40
-0.048382756645183225
40
-0.024127826436490002
40
0
40
0
40
0
40
0
10
10.505893930074141
20
18.954358738766373
30
0
10
10.457631237626543
20
19.020150451917491
30
0
10
10.361358765034701
20
19.151389108111168
30
0
10
10.22473187772453
20
19.239831392423618
30
0
10
10.156597896691725
20
19.283936363564194
30
0
0
SPLINE
5
199
100
AcDbEntity
8
0
100
AcDbSpline
70
0
71
3
72
9
73
5
74
0
42
0.000000001
43
0.0000000001
44
0.0000000001
40
-0.048170765106830743
40
-0.048170765106830743
40
-0.048170765106830743
40
-0.048170765106830743
40
-0.024134388322272698
40
0
40
0
40
0
40
0
10
10.156597896691725
20
19.283936363564194
30
0
10
10.083744244964571
20
19.319265037800363
30
0
10
9.9377398710117397
20
19.390066443661976
30
0
10
9.7757738972884862
20
19.400057461442582
30
0
10
9.6946261368955824
20
19.4050631345374
30
0
0
SPLINE
5
200
100
AcDbEntity
8
0
100
AcDbSpline
70
0
71
3
72
9
73
5
74
0
42
0.000000001
43
0.0000000001
44
0.0000000001
40
-0.04657781522311974
40
-0.04657781522311974
40
-0.04657781522311974
40
-0.04657781522311974
40
-0.022675612506791405
40
0
40
0
40
0
40
0
10
9.6946261368955824
20
19.4050631345374
30
0
10
9.6138001383561384
20
19.400046775939224
30
0
10
9.4562958919955022
20
19.390271483400213
30
0
10
9.3210376926115508
20
19.309280742603523
30
0
10
9.2551895521845076
20
19.26985178600377
30
0
0
SPLINE
5
201
100
AcDbEntity
8
0
100
AcDbSpline
70
0
71
3
72
9
73
5
74
0
42
0.000000001
43
0.0000000001
44
0.0000000001
40
-0.049067587344333342
40
-0.049067587344333342
40
-0.049067587344333342
40
-0.049067587344333342
40
-0.025713090971646545
40
0
40
0
40
0
40
0
10
9.2551895521845076
20
19.26985178600377
30
0
10
9.196016435764049
20
19.21784693680582
30
0
10
9.0716942490611512
20
19.108585215224295
30
0
10
9.0035667309667655
20
18.957484532448529
30
0
10
8.967865585562155
20
18.878302615986527
30
0
0
SPLINE
5
202
100
AcDbEntity
8
0
100
AcDbSpline
70
0
71
3
72
9
73
5
74
0
42
0.000000001
43
0.0000000001
44
0.0000000001
40
-0.062941299858292749
40
-0.062941299858292749
40
-0.062941299858292749
40
-0.062941299858292749
40
-0.033621051776713783
40
0
40
0
40
0
40
0
10
8.967865585562155
20
18.878302615986527
30
0
10
8.9377395484141413
20
18.784894856286343
30
0
10
8.8730684742677219
20
18.584377937192659
30
0
10
8.8614146359530022
20
18.373855081532877
30
0
10
8.8551895611252043
20
18.26140109907216
30
0
0
SPLINE
5
203
100
AcDbEntity
8
0
100
AcDbSpline
70
0
71
3
72
9
73
5
74
0
42
0.000000001
43
0.0000000001
44
0.0000000001
40
-0.031087080688577778
40
-0.031087080688577778
40
-0.031087080688577778
40
-0.031087080688577778
40
-0.015590123408564065
40
0
40
0
40
0
40
0
10
8.8551895611252043
20
18.26140109907216
30
0
10
8.8834201147457588
20
18.304994643179882
30
0
10
8.9400509411994893
20
18.392443811341796
30
0
10
9.0186094586105554
20
18.460882164879557
30
0
10
9.0580064349140379
20
18.495203894482316
30
0
0
SPLINE
5
204
100
AcDbEntity
8
0
100
AcDbSpline
70
0
71
3
72
9
73
5
74
0
42
0.000000001
43
0.0000000001
44
0.0000000001
40
-0.032640930838448823
40
-0.032640930838448823
40
-0.032640930838448823
40
-0.032640930838448823
40
-0.01666323103900956
40
0
40
0
40
0
40
0
10
9.0580064349140379
20
18.495203894482316
30
0
10
9.1015139620700154
20
18.526367879215201
30
0
10
9.1903957286995279
20
18.590032955107553
30
0
10
9.2929674335611789
20
18.627956648807281
30
0
10
9.3453304015363905
20
18.647316736088456
30
0
0
SPLINE
5
205
100
AcDbEntity
8
0
100
AcDbSpline
70
0
71
3
72
9
73
5
74
0
42
0.000000001
43
0.0000000001
44
0.0000000001
40
-0.03544929096933451
40
-0.03544929096933451
40
-0.03544929096933451
40
-0.03544929096933451
40
-0.018077755562673735
40
0
40
0
40
0
40
0
10
9.3453304015363905
20
18.647316736088456
30
0
10
9.4013233583826725
20
18.662925283624226
30
0
10
9.5155856025085441
20
18.694776926570654
30
0
10
9.6341585559965726
20
18.69879087544696
30
0
10
9.6946261368955824
20
18.700837832794846
30
0
0
SPLINE
5
206
100
AcDbEntity
8
0
100
AcDbSpline
70
0
71
3
72
9
73
5
74
0
42
0.000000001
43
0.0000000001
44
0.0000000001
40
-0.074344006044974806
40
-0.074344006044974806
40
-0.074344006044974806
40
-0.074344006044974806
40
-0.036197806521418976
40
0
40
0
40
0
40
0
10
9.6946261368955824
20
18.700837832794846
30
0
10
9.8229811164924339
20
18.694249958064258
30
0
10
10.073135089843259
20
18.681410697406275
30
0
10
10.299770973203151
20
18.57512374977231
30
0
10
10.410119100686476
20
18.523373049603165
30
0
0
LINE
5
207
100
AcDbEntity
8
0
100
AcDbLine
10
19.043825756956355
20
-0.52091053181017699
30
0
11
19.043825756956355
21
-1.202600509456051
31
0
0
LINE
5
208
100
AcDbEntity
8
0
100
AcDbLine
10
19.043825756956355
20
-1.202600509456051
30
0
11
16.328332912374751
21
-1.202600509456051
31
0
0
SPLINE
5
209
100
AcDbEntity
8
0
100
AcDbSpline
70
0
71
3
72
9
73
5
74
0
42
0.000000001
43
0.0000000001
44
0.0000000001
40
0
40
0
40
0
40
0
40
0.02439602335757024
40
0.046403595856682467
40
0.046403595856682467
40
0.046403595856682467
40
0.046403595856682467
10
16.328332912374751
20
-1.202600509456051
30
0
10
16.32961014002877
20
-1.1211703865136891
30
0
10
16.332039550552171
20
-0.96628241726583353
30
0
10
16.356275285686074
20
-0.81330989429452494
30
0
10
16.367769431520717
20
-0.74076047592486205
30
0
0
SPLINE
5
210
100
AcDbEntity
8
0
100
AcDbSpline
70
0
71
3
72
9
73
5
74
0
42
0.000000001
43
0.0000000001
44
0.0000000001
40
0
40
0
40
0
40
0
40
0.020540495634318683
40
0.040748078068651959
40
0.040748078068651959
40
0.040748078068651959
40
0.040748078068651959
10
16.367769431520717
20
-0.74076047592486205
30
0
10
16.383243759187934
20
-0.67377939754730165
30
0
10
16.413941612008486
20
-0.54090284678427247
30
0
10
16.475346226986229
20
-0.41914446033216257
30
0
10
16.505797695566432
20
-0.35876265220965209
30
0
0
SPLINE
5
211
100
AcDbEntity
8
0
100
AcDbSpline
70
0
71
3
72
9
73
5
74
0
42
0.000000001
43
0.0000000001
44
0.0000000001
40
0
40
0
40
0
40
0
40
0.020777178085110606
40
0.04307952658466959
40
0.04307952658466959
40
0.04307952658466959
40
0.04307952658466959
10
16.505797695566432
20
-0.35876265220965209
30
0
10
16.542665005139916
20
-0.2998151908839275
30
0
10
16.619105907574806
20
-0.17759316838991901
30
0
10
16.722627025445963
20
-0.07719850090965652
30
0
10
16.776220094610469
20
-0.02522400074328246
30
0
0
SPLINE
5
212
100
AcDbEntity
8
0
100
AcDbSpline
70
0
71
3
72
9
73
5
74
0
42
0.000000001
43
0.0000000001
44
0.0000000001
40
0
40
0
40
0
40
0
40
0.024893204284211119
40
0.053346404962780522
40
0.053346404962780522
40
0.053346404962780522
40
0.053346404962780522
10
16.776220094610469
20
-0.02522400074328246
30
0
10
16.839979274185907
20
0.02811917285486687
30
0
10
16.976615882912217
20
0.14243416855719504
30
0
10
17.130671671600368
20
0.23201460077687419
30
0
10
17.212839912821071
20
0.27979382819806276
30
0
0
SPLINE
5
213
100
AcDbEntity
8
0
100
AcDbSpline
70
0
71
3
72
9
73
5
74
0
42
0.000000001
43
0.0000000001
44
0.0000000001
40
0
40
0
40
0
40
0
40
0.024672817861628858
40
0.046121403543783107
40
0.046121403543783107
40
0.046121403543783107
40
0.046121403543783107
10
17.212839912821071
20
0.27979382819806276
30
0
10
17.285122483060064
20
0.31902522896053664
30
0
10
17.420241771415004
20
0.39236128957191474
30
0
10
17.555549369533662
20
0.46534930306584954
30
0
10
17.618473660398738
20
0.49929210490857301
30
0
0
SPLINE
5
214
100
AcDbEntity
8
0
100
AcDbSpline
70
0
71
3
72
9
73
5
74
0
42
0.000000001
43
0.0000000001
44
0.0000000001
40
0
40
0
40
0
40
0
40
0.018492791859210642
40
0.034319014321170987
40
0.034319014321170987
40
0.034319014321170987
40
0.034319014321170987
10
17.618473660398738
20
0.49929210490857301
30
0
10
17.672597590201185
20
0.52883672802552684
30
0
10
17.773041046016271
20
0.58366578529193136
30
0
10
17.869682407747046
20
0.64493658904189677
30
0
10
17.914248597074764
20
0.67319163627301393
30
0
0
SPLINE
5
215
100
AcDbEntity
8
0
100
AcDbSpline
70
0
71
3
72
9
73
5
74
0
42
0.000000001
43
0.0000000001
44
0.0000000001
40
0
40
0
40
0
40
0
40
0.013339944093840995
40
0.024568773969342046
40
0.024568773969342046
40
0.024568773969342046
40
0.024568773969342046
10
17.914248597074764
20
0.67319163627301393
30
0
10
17.951065366177843
20
0.69851829671252363
30
0
10
18.018872462820219
20
0.74516354435069376
30
0
10
18.072731403875647
20
0.80729529351878881
30
0
10
18.097346913267391
20
0.83569177932416139
30
0
0
SPLINE
5
216
100
AcDbEntity
8
0
100
AcDbSpline
70
0
71
3
72
9
73
5
74
0
42
0.000000001
43
0.0000000001
44
0.0000000001
40
0
40
0
40
0
40
0
40
0.010048089173530124
40
0.020358800073917466
40
0.020358800073917466
40
0.020358800073917466
40
0.020358800073917466
10
18.097346913267391
20
0.83569177932416139
30
0
10
18.115421272726604
20
0.86454313349506762
30
0
10
18.152042391860736
20
0.92299991480773946
30
0
10
18.156872730390731
20
0.99184596984003226
30
0
10
18.15931905453326
20
1.0267130429235571
30
0
0
SPLINE
5
217
100
AcDbEntity
8
0
100
AcDbSpline
70
0
71
3
72
9
73
5
74
0
42
0.000000001
43
0.0000000001
44
0.0000000001
40
0
40
0
40
0
40
0
40
0.011219963605699542
40
0.022336216539697445
40
0.022336216539697445
40
0.022336216539697445
40
0.022336216539697445
10
18.15931905453326
20
1.0267130429235571
30
0
10
18.156785175334079
20
1.0645251672758222
30
0
10
18.15174083860828
20
1.1397999031875417
30
0
10
18.115422010313299
20
1.2059136703237416
30
0
10
18.097346913267391
20
1.2388170654264563
30
0
0
SPLINE
5
218
100
AcDbEntity
8
0
100
AcDbSpline
70
0
71
3
72
9
73
5
74
0
42
0.000000001
43
0.0000000001
44
0.0000000001
40
0
40
0
40
0
40
0
40
0.011422191561064558
40
0.023489940471617468
40
0.023489940471617468
40
0.023489940471617468
40
0.023489940471617468
10
18.097346913267391
20
1.2388170654264563
30
0
10
18.074085448169249
20
1.2694601038375819
30
0
10
18.026247830710574
20
1.3324780583429563
30
0
10
17.957842154184412
20
1.3723422044309352
30
0
10
17.922699343611018
20
1.3928220564809912
30
0
0
SPLINE
5
219
100
AcDbEntity
8
0
100
AcDbSpline
70
0
71
3
72
9
73
5
74
0
42
0.000000001
43
0.0000000001
44
0.0000000001
40
0
40
0
40
0
40
0
40
0.0134040820517879
40
0.028964994053230681
40
0.028964994053230681
40
0.028964994053230681
40
0.028964994053230681
10
17.922699343611018
20
1.3928220564809912
30
0
10
17.880962183421474
20
1.4097424999000134
30
0
10
17.790772001653103
20
1.4463060289142693
30
0
10
17.693348158193526
20
1.4493080234053464
30
0
10
17.641008984495418
20
1.4509207899061316
30
0
0
SPLINE
5
220
100
AcDbEntity
8
0
100
AcDbSpline
70
0
71
3
72
9
73
5
74
0
42
0.000000001
43
0.0000000001
44
0.0000000001
40
0
40
0
40
0
40
0
40
0.013055553821570391
40
0.025361781796805798
40
0.025361781796805798
40
0.025361781796805798
40
0.025361781796805798
10
17.641008984495418
20
1.4509207899061316
30
0
10
17.597364958090228
20
1.4496863878976163
30
0
10
17.512581861980301
20
1.4472884326046143
30
0
10
17.43025293563754
20
1.4269746196362094
30
0
10
17.390304696012752
20
1.4171178037611121
30
0
0
SPLINE
5
221
100
AcDbEntity
8
0
100
AcDbSpline
70
0
71
3
72
9
73
5
74
0
42
0.000000001
43
0.0000000001
44
0.0000000001
40
0
40
0
40
0
40
0
40
0.011852766714488282
40
0.023509748192393431
40
0.023509748192393431
40
0.023509748192393431
40
0.023509748192393431
10
17.390304696012752
20
1.4171178037611121
30
0
10
17.35265051724927
20
1.4047636720990031
30
0
10
17.277964135373654
20
1.3802594756098552
30
0
10
17.209946103665843
20
1.3408726712359564
30
0
10
17.17622030918719
20
1.3213432723966712
30
0
0
SPLINE
5
222
100
AcDbEntity
8
0
100
AcDbSpline
70
0
71
3
72
9
73
5
74
0
42
0.000000001
43
0.0000000001
44
0.0000000001
40
0
40
0
40
0
40
0
40
0.011544563154976057
40
0.02295085527390716
40
0.02295085527390716
40
0.02295085527390716
40
0.02295085527390716
10
17.17622030918719
20
1.3213432723966712
30
0
10
17.144029301892743
20
1.3001763858062843
30
0
10
17.08003284402611
20
1.2580961317322448
30
0
10
17.021975486095958
20
1.2081417300958068
30
0
10
16.99312169497134
20
1.1833150083509558
30
0
0
SPLINE
5
223
100
AcDbEntity
8
0
100
AcDbSpline
70
0
71
3
72
9
73
5
74
0
42
0.000000001
43
0.0000000001
44
0.0000000001
40
0
40
0
40
0
40
0
40
0.011205145793106993
40
0.022136068455949752
40
0.022136068455949752
40
0.022136068455949752
40
0.022136068455949752
10
16.99312169497134
20
1.1833150083509558
30
0
10
16.965800146838738
20
1.1577896259610028
30
0
10
16.911825689838999
20
1.1073635429469053
30
0
10
16.864418904706245
20
1.0507217657332442
30
0
10
16.841009151388423
20
1.0227517182317847
30
0
0
LINE
5
224
100
AcDbEntity
8
0
100
AcDbLine
10
16.841009151388427
20
1.0227517182317847
30
0
11
16.362135600496547
21
1.5748644763914221
31
0
0
SPLINE
5
225
100
AcDbEntity
8
0
100
AcDbSpline
70
0
71
3
72
9
73
5
74
0
42
0.000000001
43
0.0000000001
44
0.0000000001
40
0
40
0
40
0
40
0
40
0.012369130065985246
40
0.027256475577094069
40
0.027256475577094069
40
0.027256475577094069
40
0.027256475577094069
10
16.362135600496547
20
1.5748644763914221
30
0
10
16.392385309158403
20
1.6029409051891508
30
0
10
16.459043226162887
20
1.6648098071842687
30
0
10
16.533005538607703
20
1.7177692537053268
30
0
10
16.573403369833247
20
1.7466954285589331
30
0
0
SPLINE
5
226
100
AcDbEntity
8
0
100
AcDbSpline
70
0
71
3
72
9
73
5
74
0
42
0.000000001
43
0.0000000001
44
0.0000000001
40
0
40
0
40
0
40
0
40
0.017079464615454086
40
0.036101895567659872
40
0.036101895567659872
40
0.036101895567659872
40
0.036101895567659872
10
16.573403369833247
20
1.7466954285589331
30
0
10
16.621133781786614
20
1.7778671142225972
30
0
10
16.722024435360296
20
1.8437565882684792
30
0
10
16.831311845061428
20
1.8945694943919456
30
0
10
16.888896417070644
20
1.9213432962385291
30
0
0
SPLINE
5
227
100
AcDbEntity
8
0
100
AcDbSpline
70
0
71
3
72
9
73
5
74
0
42
0.000000001
43
0.0000000001
44
0.0000000001
40
0
40
0
40
0
40
0
40
0.020689378461059157
40
0.042802490966353829
40
0.042802490966353829
40
0.042802490966353829
40
0.042802490966353829
10
16.888896417070644
20
1.9213432962385291
30
0
10
16.952730295164645
20
1.9476747592237809
30
0
10
17.084790762597642
20
2.002149677775753
30
0
10
17.22308369036012
20
2.0380219177897501
30
0
10
17.294530164648311
20
2.0565546447721594
30
0
0
SPLINE
5
228
100
AcDbEntity
8
0
100
AcDbSpline
70
0
71
3
72
9
73
5
74
0
42
0.000000001
43
0.0000000001
44
0.0000000001
40
0
40
0
40
0
40
0
40
0.023375426350570425
40
0.047989260607271725
40
0.047989260607271725
40
0.047989260607271725
40
0.047989260607271725
10
17.294530164648311
20
2.0565546447721594
30
0
10
17.37103698222009
20
2.0721620325547674
30
0
10
17.528103875958067
20
2.1042036727142022
30
0
10
17.688380265771723
20
2.108084998142052
30
0
10
17.770586502004878
20
2.1100757414785498
30
0
0
SPLINE
5
229
100
AcDbEntity
8
0
100
AcDbSpline
70
0
71
3
72
9
73
5
74
0
42
0.000000001
43
0.0000000001
44
0.0000000001
40
0
40
0
40
0
40
0
40
0.035625005676703854
40
0.066867452263688482
40
0.066867452263688482
40
0.066867452263688482
40
0.066867452263688482
10
17.770586502004878
20
2.1100757414785498
30
0
10
17.890179668770415
20
2.1064481357973586
30
0
10
18.114653748643683
20
2.0996391895218176
30
0
10
18.325564291941678
20
2.0232075311703079
30
0
10
18.42410792057635
20
1.987496405312168
30
0
0
SPLINE
5
230
100
AcDbEntity
8
0
100
AcDbSpline
70
0
71
3
72
9
73
5
74
0
42
0.000000001
43
0.0000000001
44
0.0000000001
40
0
40
0
40
0
40
0
40
0.02798921163318388
40
0.054077041075283105
40
0.054077041075283105
40
0.054077041075283105
40
0.054077041075283105
10
18.42410792057635
20
1.987496405312168
30
0
10
18.508050185210156
20
1.9440680309385061
30
0
10
18.670232291374678
20
1.8601614881028039
30
0
10
18.783533420818447
20
1.7172023224707926
30
0
10
18.838192116667049
20
1.6482360059705847
30
0
0
SPLINE
5
231
100
AcDbEntity
8
0
100
AcDbSpline
70
0
71
3
72
9
73
5
74
0
42
0.000000001
43
0.0000000001
44
0.0000000001
40
0
40
0
40
0
40
0
40
0.025870543518305346
40
0.053330256077382843
40
0.053330256077382843
40
0.053330256077382843
40
0.053330256077382843
10
18.838192116667049
20
1.6482360059705847
30
0
10
18.880083311236437
20
1.5715566515480583
30
0
10
18.966438981815685
20
1.4134877031972737
30
0
10
18.976614727308188
20
1.2334822238998222
30
0
10
18.981854211736934
20
1.1407975251165503
30
0
0
SPLINE
5
232
100
AcDbEntity
8
0
100
AcDbSpline
70
0
71
3
72
9
73
5
74
0
42
0.000000001
43
0.0000000001
44
0.0000000001
40
0
40
0
40
0
40
0
40
0.018995788681705927
40
0.036496591700878891
40
0.036496591700878891
40
0.036496591700878891
40
0.036496591700878891
10
18.981854211736934
20
1.1407975251165503
30
0
10
18.979334544107086
20
1.0770170952578317
30
0
10
18.974493508957174
20
0.95447581276283555
30
0
10
18.929966529597738
20
0.84030625546757276
30
0
10
18.908615004469173
20
0.78555980271969972
30
0
0
SPLINE
5
233
100
AcDbEntity
8
0
100
AcDbSpline
70
0
71
3
72
9
73
5
74
0
42
0.000000001
43
0.0000000001
44
0.0000000001
40
0
40
0
40
0
40
0
40
0.016747160998840986
40
0.033070500208403825
40
0.033070500208403825
40
0.033070500208403825
40
0.033070500208403825
10
18.908615004469173
20
0.78555980271969972
30
0
10
18.882804858164537
20
0.73579944643958672
30
0
10
18.83183774506367
20
0.63753802333356757
30
0
10
18.758766546514423
20
0.55440867567965957
30
0
10
18.722699176718013
20
0.51337668246899781
30
0
0
SPLINE
5
234
100
AcDbEntity
8
0
100
AcDbSpline
70
0
71
3
72
9
73
5
74
0
42
0.000000001
43
0.0000000001
44
0.0000000001
40
0
40
0
40
0
40
0
40
0.016173339452422022
40
0.032259594451829167
40
0.032259594451829167
40
0.032259594451829167
40
0.032259594451829167
10
18.722699176718013
20
0.51337668246899781
30
0
10
18.684378927530737
20
0.47533497466594299
30
0
10
18.607944762421475
20
0.39945639253442411
30
0
10
18.520989155048973
20
0.33590934915274706
30
0
10
18.477628719259517
20
0.30422159976636109
30
0
0
SPLINE
5
235
100
AcDbEntity
8
0
100
AcDbSpline
70
0
71
3
72
9
73
5
74
0
42
0.000000001
43
0.0000000001
44
0.0000000001
40
0
40
0
40
0
40
0
40
0.015607830020470555
40
0.03024952941200458
40
0.03024952941200458
40
0.03024952941200458
40
0.03024952941200458
10
18.477628719259517
20
0.30422159976636109
30
0
10
18.434553551696336
20
0.27500864225680544
30
0
10
18.351069585865048
20
0.21839102044531988
30
0
10
18.263619245072491
20
0.16812205430464133
30
0
10
18.221290599752681
20
0.14379033393536744
30
0
0
SPLINE
5
236
100
AcDbEntity
8
0
100
AcDbSpline
70
0
71
3
72
9
73
5
74
0
42
0.000000001
43
0.0000000001
44
0.0000000001
40
0
40
0
40
0
40
0
40
0.018811669312809923
40
0.035793704688704561
40
0.035793704688704561
40
0.035793704688704561
40
0.035793704688704561
10
18.221290599752681
20
0.14379033393536744
30
0
10
18.165819887517642
20
0.11454827281256241
30
0
10
18.060273576895376
20
0.058908250499075665
30
0
10
17.955504633361418
20
0.0018183378622138591
30
0
10
17.905797850538509
20
-0.025267512133968495
30
0
0
SPLINE
5
237
100
AcDbEntity
8
0
100
AcDbSpline
70
0
71
3
72
9
73
5
74
0
42
0.000000001
43
0.0000000001
44
0.0000000001
40
0
40
0
40
0
40
0
40
0.015333073971948696
40
0.029234208158365832
40
0.029234208158365832
40
0.029234208158365832
40
0.029234208158365832
10
17.905797850538509
20
-0.025267512133968495
30
0
10
17.861228886443584
20
-0.050350079818952675
30
0
10
17.776253207324217
20
-0.098172780354450762
30
0
10
17.69604853506101
20
-0.15361435210223706
30
0
10
17.657910477567928
20
-0.1799773281129724
30
0
0
SPLINE
5
238
100
AcDbEntity
8
0
100
AcDbSpline
70
0
71
3
72
9
73
5
74
0
42
0.000000001
43
0.0000000001
44
0.0000000001
40
0
40
0
40
0
40
0
40
0.012742820837449027
40
0.024603487125670821
40
0.024603487125670821
40
0.024603487125670821
40
0.024603487125670821
10
17.657910477567928
20
-0.1799773281129724
30
0
10
17.623813405910163
20
-0.20537236943867443
30
0
10
17.55797972008375
20
-0.25440441503383981
30
0
10
17.4980624869414
20
-0.31050366253460582
30
0
10
17.469178032327907
20
-0.3375475709947473
30
0
0
SPLINE
5
239
100
AcDbEntity
8
0
100
AcDbSpline
70
0
71
3
72
9
73
5
74
0
42
0.000000001
43
0.0000000001
44
0.0000000001
40
0
40
0
40
0
40
0
40
0.011522798032380595
40
0.023341186627394823
40
0.023341186627394823
40
0.023341186627394823
40
0.023341186627394823
10
17.469178032327907
20
-0.3375475709947473
30
0
10
17.442642403388774
20
-0.36544892229786852
30
0
10
17.388890435715368
20
-0.42196736912758492
30
0
10
17.34681856680519
20
-0.48765220209471272
30
0
10
17.325516235281246
20
-0.52091053181017699
30
0
0
LINE
5
240
100
AcDbEntity
8
0
100
AcDbLine
10
17.325516235281249
20
-0.52091053181017699
30
0
11
19.043825756956355
21
-0.52091053181017699
31
0
0
SPLINE
5
241
100
AcDbEntity
8
0
100
AcDbSpline
70
0
71
3
72
8
73
4
74
0
42
0.000000001
43
0.0000000001
44
0.0000000001
40
18
40
18
40
18
40
18
40
19
40
19
40
19
40
19
10
-12.451308866464599
20
-7.042413346461144
30
0
10
-12.598084403534981
20
-7.5456135795655523
30
0
10
-13.080313220496604
20
-7.902046400904629
30
0
10
-13.604484869741027
20
-7.902046400904629
30
0
0
LINE
5
242
100
AcDbEntity
8
0
100
AcDbLine
10
-13.604484869741027
20
-7.902046400904629
30
0
11
-25.89094774848131
21
-7.902046400904629
31
0
0
SPLINE
5
243
100
AcDbEntity
8
0
100
AcDbSpline
70
0
71
3
72
8
73
4
74
0
42
0.000000001
43
0.0000000001
44
0.0000000001
40
20
40
20
40
20
40
20
40
21
40
21
40
21
40
21
10
-25.89094774848131
20
-7.902046400904629
30
0
10
-26.583045107681428
20
-7.902046400904629
30
0
10
-27.127976915097378
20
-7.35691146082487
30
0
10
-27.127976915097378
20
-6.6859805251233464
30
0
0
SPLINE
5
244
100
AcDbEntity
8
0
100
AcDbSpline
70
0
71
3
72
8
73
4
74
0
42
0.000000001
43
0.0000000001
44
0.0000000001
40
0
40
0
40
0
40
0
40
1
40
1
40
1
40
1
10
-27.127976915097378
20
-6.6859805251233464
30
0
10
-27.127976915097378
20
-6.0150414641148178
30
0
10
-26.583045107681428
20
-5.4699146493421535
30
0
10
-25.89094774848131
20
-5.4699146493421535
30
0
0
LINE
5
245
100
AcDbEntity
8
0
100
AcDbLine
10
-25.89094774848131
20
-5.4699146493421535
30
0
11
-19.384226659055088
21
-5.4699146493421535
31
0
0
SPLINE
5
246
100
AcDbEntity
8
0
100
AcDbSpline
70
0
71
3
72
8
73
4
74
0
42
0.000000001
43
0.0000000001
44
0.0000000001
40
2
40
2
40
2
40
2
40
3
40
3
40
3
40
3
10
-19.384226659055088
20
-5.4699146493421535
30
0
10
-18.850532150563126
20
-5.4699146493421535
30
0
10
-18.639916080124507
20
-4.7783941869056026
30
0
10
-19.083070298006561
20
-4.4808535872607838
30
0
0
LINE
5
247
100
AcDbEntity
8
0
100
AcDbLine
10
-19.083070298006561
20
-4.4808535872607838
30
0
11
-22.515313528524487
21
-2.1781417180309459
31
0
0
SPLINE
5
248
100
AcDbEntity
8
0
100
AcDbSpline
70
0
71
3
72
11
73
7
74
0
42
0.000000001
43
0.0000000001
44
0.0000000001
40
4
40
4
40
4
40
4
40
5
40
5
40
5
40
6
40
6
40
6
40
6
10
-22.515313528524487
20
-2.1781417180309459
30
0
10
-22.850969941078773
20
-1.9475130176211719
30
0
10
-23.060448468603695
20
-1.5701087801407489
30
0
10
-23.060448468603695
20
-1.1717412518246875
30
0
10
-23.060448468603695
20
-0.75241043267430219
30
0
10
-22.850969941078773
20
-0.37500619519350603
30
0
10
-22.515313528524487
20
-0.14437749478355466
30
0
0
LINE
5
249
100
AcDbEntity
8
0
100
AcDbLine
10
-22.515313528524487
20
-0.14437749478355472
30
0
11
-19.083200302911038
21
2.1584400034306874
31
0
0
SPLINE
5
250
100
AcDbEntity
8
0
100
AcDbSpline
70
0
71
3
72
8
73
4
74
0
42
0.000000001
43
0.0000000001
44
0.0000000001
40
7
40
7
40
7
40
7
40
8
40
8
40
8
40
8
10
-19.083200302911038
20
2.1584400034306874
30
0
10
-18.639981082576782
20
2.4558262222513996
30
0
10
-18.850491524030446
20
3.1473873112206299
30
0
10
-19.384226659055088
20
3.1473873112206299
30
0
0
LINE
5
251
100
AcDbEntity
8
0
100
AcDbLine
10
-19.384226659055088
20
3.1473873112206299
30
0
11
-20.816255056968377
21
3.1473873112206299
31
0
0
SPLINE
5
252
100
AcDbEntity
8
0
100
AcDbSpline
70
0
71
3
72
11
73
7
74
0
42
0.000000001
43
0.0000000001
44
0.0000000001
40
9
40
9
40
9
40
9
40
10
40
10
40
10
40
11
40
11
40
11
40
11
10
-20.816255056968377
20
3.1473873112206299
30
0
10
-21.508157408811741
20
3.1473873112206299
30
0
10
-22.053284223584303
20
3.6925222513002467
30
0
10
-22.053284223584303
20
4.3634613123076207
30
0
10
-22.053284223584303
20
5.0343922480104411
30
0
10
-21.508157408811744
20
5.5795271880889574
30
0
10
-20.816255056968377
20
5.5795271880889574
30
0
0
LINE
5
253
100
AcDbEntity
8
0
100
AcDbLine
10
-20.816255056968377
20
5.5795271880889574
30
0
11
-13.604484869741032
21
5.5795271880889601
31
0
0
SPLINE
5
254
100
AcDbEntity
8
0
100
AcDbSpline
70
0
71
3
72
8
73
4
74
0
42
0.000000001
43
0.0000000001
44
0.0000000001
40
12
40
12
40
12
40
12
40
13
40
13
40
13
40
13
10
-13.604484869741032
20
5.5795271880889601
30
0
10
-13.080313220496606
20
5.5795271880889601
30
0
10
-12.598084403534983
20
5.2232812488001077
30
0
10
-12.451308866464601
20
4.7198941336466635
30
0
0
SPLINE
5
255
100
AcDbEntity
8
0
100
AcDbSpline
70
0
71
3
72
8
73
4
74
0
42
0.000000001
43
0.0000000001
44
0.0000000001
40
13
40
13
40
13
40
13
40
14
40
14
40
14
40
14
10
-12.451308866464601
20
4.7198941336466635
30
0
10
-12.283578163865798
20
4.1957224844028271
30
0
10
-12.493243573440964
20
3.6505875443232991
30
0
10
-12.933545808732802
20
3.3570608461021454
30
0
0
LINE
5
256
100
AcDbEntity
8
0
100
AcDbLine
10
-12.933545808732802
20
3.3570608461021454
30
0
11
-18.606342313562607
21
-0.47207923224975357
31
0
0
SPLINE
5
257
100
AcDbEntity
8
0
100
AcDbSpline
70
0
71
3
72
8
73
4
74
0
42
0.000000001
43
0.0000000001
44
0.0000000001
40
15
40
15
40
15
40
15
40
16
40
16
40
16
40
16
10
-18.606342313562607
20
-0.47207923224975384
30
0
10
-19.101660999336289
20
-0.80641934514756675
30
0
10
-19.100872844603131
20
-1.53590123967001
30
0
10
-18.604839131855428
20
-1.8691769374113631
30
0
0
LINE
5
258
100
AcDbEntity
8
0
100
AcDbLine
10
-18.604839131855428
20
-1.8691769374113634
30
0
11
-12.9335458087328
21
-5.6795800589167333
31
0
0
SPLINE
5
259
100
AcDbEntity
8
0
100
AcDbSpline
70
0
71
3
72
8
73
4
74
0
42
0.000000001
43
0.0000000001
44
0.0000000001
40
17
40
17
40
17
40
17
40
18
40
18
40
18
40
18
10
-12.9335458087328
20
-5.6795800589167333
30
0
10
-12.493243573440962
20
-5.9731148824448201
30
0
10
-12.283578163865796
20
-6.5182416972174853
30
0
10
-12.451308866464599
20
-7.042413346461144
30
0
0
SPLINE
5
260
100
AcDbEntity
8
0
100
AcDbSpline
70
0
71
3
72
17
73
13
74
0
42
0.000000001
43
0.0000000001
44
0.0000000001
40
0
40
0
40
0
40
0
40
1
40
1
40
1
40
2
40
2
40
2
40
3
40
3
40
3
40
4
40
4
40
4
40
4
10
-27.128115045308576
20
4.3638919535545293
30
0
10
-27.128115045308576
20
5.0352129039693425
30
0
10
-26.583743884042505
20
5.5795840652351831
30
0
10
-25.912431058933723
20
5.5795840652351831
30
0
10
-25.240923226468684
20
5.5795840652351858
30
0
10
-24.696738947253071
20
5.0352129039693452
30
0
10
-24.696738947253071
20
4.363891953554532
30
0
10
-24.696738947253071
20
3.6923922463956984
30
0
10
-25.240923226468684
20
3.1482079671797649
30
0
10
-25.912431058933723
20
3.1482079671797623
30
0
10
-26.583743884042505
20
3.1482079671797623
30
0
10
-27.128115045308576
20
3.6923922463956957
30
0
10
-27.128115045308576
20
4.3638919535545293
30
0
0
LWPOLYLINE
5
261
100
AcDbEntity
8
0
100
AcDbPolyline
90
12
70
1
43
0.0
10
43.646600495254148
20
-3.4543094694297682
10
1.1466004952541464
20
-3.4543094694297682
10
1.1466004952541464
20
-8.4543094694297682
10
-2.3533995047458589
20
-8.45430946942977
10
-2.3533995047458589
20
-18.454309469429766
10
-36.353399504745859
20
-18.45430946942977
10
-36.353399504745852
20
16.54569053057023
10
-6.3533995047458536
20
16.54569053057023
10
-6.3533995047458536
20
21.545690530570234
10
23.646600495254148
20
21.545690530570234
10
23.646600495254148
20
26.545690530570234
10
43.646600495254148
20
26.545690530570234
0
ENDSEC
0
SECTION
2
OBJECTS
0
DICTIONARY
5
C
100
AcDbDictionary
3
ACAD_GROUP
350
D
3
ACAD_MLINESTYLE
350
17
0
DICTIONARY
5
D
100
AcDbDictionary
0
DICTIONARY
5
1A
330
C
100
AcDbDictionary
0
DICTIONARY
5
17
100
AcDbDictionary
0
ENDSEC
0
EOF
