0
SECTION
2
HEADER
9
$INSUNITS
70
4
9
$ACADVER
1
AC1014
9
$HANDSEED
5
FFFF
0
ENDSEC
0
SECTION
2
TABLES
0
TABLE
2
VPORT
5
8
100
AcDbSymbolTable
0
ENDTAB
0
TABLE
2
LTYPE
5
5
100
AcDbSymbolTable
0
LTYPE
5
14
100
AcDbSymbolTableRecord
100
AcDbLinetypeTableRecord
2
BYBLOCK
70
0
0
LTYPE
5
15
100
AcDbSymbolTableRecord
100
AcDbLinetypeTableRecord
2
BYLAYER
70
0
0
ENDTAB
0
TABLE
2
LAYER
5
2
100
AcDbSymbolTable
70
2
0
LAYER
5
50
100
AcDbSymbolTableRecord
100
AcDbLayerTableRecord
2
0
70
0
6
CONTINUOUS
0
ENDTAB
0
TABLE
2
STYLE
5
3
100
AcDbSymbolTable
70
1
0
STYLE
5
11
100
AcDbSymbolTableRecord
100
AcDbTextStyleTableRecord
2
STANDARD
70
0
0
ENDTAB
0
TABLE
2
VIEW
5
6
100
AcDbSymbolTable
70
0
0
ENDTAB
0
TABLE
2
UCS
5
7
100
AcDbSymbolTable
70
0
0
ENDTAB
0
TABLE
2
APPID
5
9
100
AcDbSymbolTable
70
2
0
APPID
5
12
100
AcDbSymbolTableRecord
100
AcDbRegAppTableRecord
2
ACAD
70
0
0
ENDTAB
0
TABLE
2
DIMSTYLE
5
A
100
AcDbSymbolTable
70
1
0
ENDTAB
0
TABLE
2
BLOCK_RECORD
5
1
100
AcDbSymbolTable
70
1
0
BLOCK_RECORD
5
1F
100
AcDbSymbolTableRecord
100
AcDbBlockTableRecord
2
*MODEL_SPACE
0
BLOCK_RECORD
5
1B
100
AcDbSymbolTableRecord
100
AcDbBlockTableRecord
2
*PAPER_SPACE
0
ENDTAB
0
ENDSEC
0
SECTION
2
BLOCKS
0
BLOCK
5
20
100
AcDbEntity
100
AcDbBlockBegin
2
*MODEL_SPACE
0
ENDBLK
5
21
100
AcDbEntity
100
AcDbBlockEnd
0
BLOCK
5
1C
100
AcDbEntity
100
AcDbBlockBegin
2
*PAPER_SPACE
0
ENDBLK
5
1D
100
AcDbEntity
100
AcDbBlockEnd
0
ENDSEC
0
SECTION
2
ENTITIES
0
LWPOLYLINE
5
100
100
AcDbEntity
8
0
100
AcDbPolyline
90
12
70
1
43
0.0
10
-54.15934538986513
20
11.557863246252914
42
-0.4142135623730947
10
-52.15934538986513
20
13.557863246252914
10
-32.859686299471129
20
13.557863246252914
10
-32.859686299471129
20
3.5578632462529125
10
62.140313700528871
20
3.5578632462529125
10
62.140313700528871
20
8.5578632462529125
10
73.840654610134877
20
8.5578632462529125
42
-0.41421356237309243
10
75.840654610134877
20
6.5578632462529107
10
75.840654610134891
20
-24.442136753747086
42
-0.41421356237309243
10
73.840654610134891
20
-26.442136753747086
10
-52.15934538986513
20
-26.442136753747079
42
-0.41421356237309243
10
-54.159345389865123
20
-24.442136753747086
0
SPLINE
5
101
100
AcDbEntity
8
0
100
AcDbSpline
70
0
71
3
72
8
73
4
74
0
42
0.000000001
43
0.0000000001
44
0.0000000001
40
18
40
18
40
18
40
18
40
19
40
19
40
19
40
19
10
9.0629442074121833
20
-18.087074519603149
30
0
10
8.6100639976181963
20
-17.954976536239954
30
0
10
8.2892744584130167
20
-17.520970600974536
30
0
10
8.2892744584130167
20
-17.049216116654534
30
0
0
LINE
5
102
100
AcDbEntity
8
0
100
AcDbLine
10
8.2892744584130167
20
-17.049216116654534
30
0
11
8.2892744584130149
21
-5.9913995257881663
31
0
0
SPLINE
5
103
100
AcDbEntity
8
0
100
AcDbSpline
70
0
71
3
72
8
73
4
74
0
42
0.000000001
43
0.0000000001
44
0.0000000001
40
20
40
20
40
20
40
20
40
21
40
21
40
21
40
21
10
8.2892744584130149
20
-5.9913995257881663
30
0
10
8.2892744584130149
20
-5.3685119025081445
30
0
10
8.7798959044848566
20
-4.8780732758336836
30
0
10
9.3837337466160839
20
-4.8780732758336836
30
0
0
SPLINE
5
104
100
AcDbEntity
8
0
100
AcDbSpline
70
0
71
3
72
8
73
4
74
0
42
0.000000001
43
0.0000000001
44
0.0000000001
40
0
40
0
40
0
40
0
40
1
40
1
40
1
40
1
10
9.3837337466160839
20
-4.8780732758336836
30
0
10
9.9875789015238272
20
-4.8780732758336836
30
0
10
10.478193034819149
20
-5.3685119025081445
30
0
10
10.478193034819149
20
-5.9913995257881645
30
0
0
LINE
5
105
100
AcDbEntity
8
0
100
AcDbLine
10
10.478193034819149
20
-5.9913995257881645
30
0
11
10.478193034819153
21
-11.847448506271817
31
0
0
SPLINE
5
106
100
AcDbEntity
8
0
100
AcDbSpline
70
0
71
3
72
8
73
4
74
0
42
0.000000001
43
0.0000000001
44
0.0000000001
40
2
40
2
40
2
40
2
40
3
40
3
40
3
40
3
10
10.478193034819153
20
-11.847448506271817
30
0
10
10.478193034819153
20
-12.327773563914647
30
0
10
11.100561451012034
20
-12.517328027309404
30
0
10
11.368347990692477
20
-12.118489231215491
30
0
0
LINE
5
107
100
AcDbEntity
8
0
100
AcDbLine
10
11.368347990692477
20
-12.11848923121549
30
0
11
13.440788672999265
21
-9.0294703237493827
31
0
0
SPLINE
5
108
100
AcDbEntity
8
0
100
AcDbSpline
70
0
71
3
72
11
73
7
74
0
42
0.000000001
43
0.0000000001
44
0.0000000001
40
4
40
4
40
4
40
4
40
5
40
5
40
5
40
6
40
6
40
6
40
6
10
13.440788672999265
20
-9.0294703237493827
30
0
10
13.648354503368115
20
-8.7273795524504187
30
0
10
13.988018317100586
20
-8.5388488776779674
30
0
10
14.346549092584898
20
-8.5388488776779674
30
0
10
14.723946829820409
20
-8.5388488776779674
30
0
10
15.063610643553094
20
-8.7273795524504187
30
0
10
15.27117647392194
20
-9.0294703237493827
30
0
0
LINE
5
109
100
AcDbEntity
8
0
100
AcDbLine
10
15.27117647392194
20
-9.029470323749381
30
0
11
17.343712222314721
21
-12.118372226801441
31
0
0
SPLINE
5
110
100
AcDbEntity
8
0
100
AcDbSpline
70
0
71
3
72
8
73
4
74
0
42
0.000000001
43
0.0000000001
44
0.0000000001
40
7
40
7
40
7
40
7
40
8
40
8
40
8
40
8
10
17.343712222314721
20
-12.118372226801441
30
0
10
17.611359819253479
20
-12.517269525102163
30
0
10
18.233764799325737
20
-12.327810127794038
30
0
10
18.233764799325737
20
-11.847448506271817
30
0
0
LINE
5
111
100
AcDbEntity
8
0
100
AcDbLine
10
18.233764799325737
20
-11.847448506271817
30
0
11
18.233764799325737
21
-10.558622948149775
31
0
0
SPLINE
5
112
100
AcDbEntity
8
0
100
AcDbSpline
70
0
71
3
72
11
73
7
74
0
42
0.000000001
43
0.0000000001
44
0.0000000001
40
9
40
9
40
9
40
9
40
10
40
10
40
10
40
11
40
11
40
11
40
11
10
18.233764799325737
20
-10.558622948149775
30
0
10
18.233764799325737
20
-9.9359108314908315
30
0
10
18.724386245397366
20
-9.4452966981955075
30
0
10
19.328231400304041
20
-9.4452966981955075
30
0
10
19.932069242436548
20
-9.4452966981955075
30
0
10
20.42269068850711
20
-9.9359108314908315
30
0
10
20.42269068850711
20
-10.558622948149775
30
0
0
LINE
5
113
100
AcDbEntity
8
0
100
AcDbLine
10
20.42269068850711
20
-10.558622948149775
30
0
11
20.422690688507132
21
-17.049216116654534
31
0
0
SPLINE
5
114
100
AcDbEntity
8
0
100
AcDbSpline
70
0
71
3
72
8
73
4
74
0
42
0.000000001
43
0.0000000001
44
0.0000000001
40
12
40
12
40
12
40
12
40
13
40
13
40
13
40
13
10
20.422690688507132
20
-17.049216116654534
30
0
10
20.422690688507132
20
-17.520970600974536
30
0
10
20.102069343147363
20
-17.954976536239954
30
0
10
19.649020939509242
20
-18.087074519603149
30
0
0
SPLINE
5
115
100
AcDbEntity
8
0
100
AcDbSpline
70
0
71
3
72
8
73
4
74
0
42
0.000000001
43
0.0000000001
44
0.0000000001
40
13
40
13
40
13
40
13
40
14
40
14
40
14
40
14
10
19.649020939509242
20
-18.087074519603149
30
0
10
19.177266455189667
20
-18.238032151942093
30
0
10
18.686645009118251
20
-18.049333283324444
30
0
10
18.422470980719069
20
-17.653061271561853
30
0
0
LINE
5
116
100
AcDbEntity
8
0
100
AcDbLine
10
18.422470980719073
20
-17.65306127156185
30
0
11
14.976244910202386
21
-12.547544417215006
31
0
0
SPLINE
5
117
100
AcDbEntity
8
0
100
AcDbSpline
70
0
71
3
72
8
73
4
74
0
42
0.000000001
43
0.0000000001
44
0.0000000001
40
15
40
15
40
15
40
15
40
16
40
16
40
16
40
16
10
14.976244910202386
20
-12.547544417215006
30
0
10
14.675338808594407
20
-12.1017576000188
30
0
10
14.018805103524262
20
-12.102466939278557
30
0
10
13.718856975556964
20
-12.548897280751403
30
0
0
LINE
5
118
100
AcDbEntity
8
0
100
AcDbLine
10
13.718856975556966
20
-12.548897280751403
30
0
11
10.289494166202143
21
-17.653061271561853
31
0
0
SPLINE
5
119
100
AcDbEntity
8
0
100
AcDbSpline
70
0
71
3
72
8
73
4
74
0
42
0.000000001
43
0.0000000001
44
0.0000000001
40
17
40
17
40
17
40
17
40
18
40
18
40
18
40
18
10
10.289494166202143
20
-17.653061271561853
30
0
10
10.025312825026869
20
-18.049333283324444
30
0
10
9.5346986917315455
20
-18.238032151942093
30
0
10
9.0629442074121833
20
-18.087074519603149
30
0
0
SPLINE
5
120
100
AcDbEntity
8
0
100
AcDbSpline
70
0
71
3
72
17
73
13
74
0
42
0.000000001
43
0.0000000001
44
0.0000000001
40
0
40
0
40
0
40
0
40
1
40
1
40
1
40
2
40
2
40
2
40
3
40
3
40
3
40
4
40
4
40
4
40
4
10
19.328618977426224
20
-4.8779489586437546
30
0
10
19.932807832799604
20
-4.8779489586437546
30
0
10
20.422741877938897
20
-5.3678830037830476
30
0
10
20.422741877938897
20
-5.9720645463809738
30
0
10
20.422741877938897
20
-6.5764215955995509
30
0
10
19.932807832799604
20
-7.0661874468936459
30
0
10
19.328618977426224
20
-7.0661874468936459
30
0
10
18.724269240983315
20
-7.0661874468936459
30
0
10
18.234503389689007
20
-6.5764215955995509
30
0
10
18.234503389689007
20
-5.9720645463809738
30
0
10
18.234503389689007
20
-5.3678830037830476
30
0
10
18.724269240983315
20
-4.8779489586437546
30
0
10
19.328618977426224
20
-4.8779489586437546
30
0
0
ENDSEC
0
SECTION
2
OBJECTS
0
DICTIONARY
5
C
100
AcDbDictionary
3
ACAD_GROUP
350
D
3
ACAD_MLINESTYLE
350
17
0
DICTIONARY
5
D
100
AcDbDictionary
0
DICTIONARY
5
1A
330
C
100
AcDbDictionary
0
DICTIONARY
5
17
100
AcDbDictionary
0
ENDSEC
0
EOF
